<?xml version="1.0" encoding="utf-8" standalone="no"?>
<!DOCTYPE svg PUBLIC "-//W3C//DTD SVG 1.1//EN"
  "http://www.w3.org/Graphics/SVG/1.1/DTD/svg11.dtd">
<svg xmlns:xlink="http://www.w3.org/1999/xlink" width="710.040631pt" height="566.816923pt" viewBox="0 0 710.040631 566.816923" xmlns="http://www.w3.org/2000/svg" version="1.1">
 <metadata>
  <rdf:RDF xmlns:dc="http://purl.org/dc/elements/1.1/" xmlns:cc="http://creativecommons.org/ns#" xmlns:rdf="http://www.w3.org/1999/02/22-rdf-syntax-ns#">
   <cc:Work>
    <dc:type rdf:resource="http://purl.org/dc/dcmitype/StillImage"/>
    <dc:date>2026-09-19T08:04:53.614603</dc:date>
    <dc:format>image/svg+xml</dc:format>
    <dc:creator>
     <cc:Agent>
      <dc:title>Matplotlib v3.11.2, https://matplotlib.org/</dc:title>
     </cc:Agent>
    </dc:creator>
   </cc:Work>
  </rdf:RDF>
 </metadata>
 <defs>
  <style type="text/css">*{stroke-linejoin: round; stroke-linecap: butt}</style>
 </defs>
 <g id="figure_1">
  <g id="patch_1">
   <path d="M 0 566.816923 
L 710.040631 566.816923 
L 710.040631 0 
L 0 0 
z
" style="fill: #ffffff"/>
  </g>
  <g id="axes_1">
   <g id="patch_2">
    <path d="M 52.416016 270.947172 
L 702.840631 270.947172 
L 702.840631 32.64 
L 52.416016 32.64 
z
" style="fill: #ffffff"/>
   </g>
   <g id="matplotlib.axis_1">
    <g id="xtick_1">
     <g id="line2d_1">
      <path d="M 81.980771 270.947172 
L 81.980771 32.64 
" clip-path="url(#pb55b580436)" style="fill: none; stroke: #b0b0b0; stroke-opacity: 0.18; stroke-width: 0.8; stroke-linecap: square"/>
     </g>
     <g id="line2d_2">
      <defs>
       <path id="m4e989d42c2" d="M 0 0 
L 0 3.5 
" style="stroke: #000000; stroke-width: 0.8"/>
      </defs>
      <g>
       <use xlink:href="#m4e989d42c2" x="81.980771" y="270.947172" style="stroke: #000000; stroke-width: 0.8"/>
      </g>
     </g>
    </g>
    <g id="xtick_2">
     <g id="line2d_3">
      <path d="M 200.239792 270.947172 
L 200.239792 32.64 
" clip-path="url(#pb55b580436)" style="fill: none; stroke: #b0b0b0; stroke-opacity: 0.18; stroke-width: 0.8; stroke-linecap: square"/>
     </g>
     <g id="line2d_4">
      <g>
       <use xlink:href="#m4e989d42c2" x="200.239792" y="270.947172" style="stroke: #000000; stroke-width: 0.8"/>
      </g>
     </g>
    </g>
    <g id="xtick_3">
     <g id="line2d_5">
      <path d="M 318.498813 270.947172 
L 318.498813 32.64 
" clip-path="url(#pb55b580436)" style="fill: none; stroke: #b0b0b0; stroke-opacity: 0.18; stroke-width: 0.8; stroke-linecap: square"/>
     </g>
     <g id="line2d_6">
      <g>
       <use xlink:href="#m4e989d42c2" x="318.498813" y="270.947172" style="stroke: #000000; stroke-width: 0.8"/>
      </g>
     </g>
    </g>
    <g id="xtick_4">
     <g id="line2d_7">
      <path d="M 436.757834 270.947172 
L 436.757834 32.64 
" clip-path="url(#pb55b580436)" style="fill: none; stroke: #b0b0b0; stroke-opacity: 0.18; stroke-width: 0.8; stroke-linecap: square"/>
     </g>
     <g id="line2d_8">
      <g>
       <use xlink:href="#m4e989d42c2" x="436.757834" y="270.947172" style="stroke: #000000; stroke-width: 0.8"/>
      </g>
     </g>
    </g>
    <g id="xtick_5">
     <g id="line2d_9">
      <path d="M 555.016855 270.947172 
L 555.016855 32.64 
" clip-path="url(#pb55b580436)" style="fill: none; stroke: #b0b0b0; stroke-opacity: 0.18; stroke-width: 0.8; stroke-linecap: square"/>
     </g>
     <g id="line2d_10">
      <g>
       <use xlink:href="#m4e989d42c2" x="555.016855" y="270.947172" style="stroke: #000000; stroke-width: 0.8"/>
      </g>
     </g>
    </g>
    <g id="xtick_6">
     <g id="line2d_11">
      <path d="M 673.275876 270.947172 
L 673.275876 32.64 
" clip-path="url(#pb55b580436)" style="fill: none; stroke: #b0b0b0; stroke-opacity: 0.18; stroke-width: 0.8; stroke-linecap: square"/>
     </g>
     <g id="line2d_12">
      <g>
       <use xlink:href="#m4e989d42c2" x="673.275876" y="270.947172" style="stroke: #000000; stroke-width: 0.8"/>
      </g>
     </g>
    </g>
    <g id="xtick_7">
     <g id="line2d_13">
      <defs>
       <path id="m714405ec32" d="M 0 0 
L 0 2 
" style="stroke: #000000; stroke-width: 0.6"/>
      </defs>
      <g>
       <use xlink:href="#m714405ec32" x="55.745155" y="270.947172" style="stroke: #000000; stroke-width: 0.6"/>
      </g>
     </g>
    </g>
    <g id="xtick_8">
     <g id="line2d_14">
      <g>
       <use xlink:href="#m714405ec32" x="63.662217" y="270.947172" style="stroke: #000000; stroke-width: 0.6"/>
      </g>
     </g>
    </g>
    <g id="xtick_9">
     <g id="line2d_15">
      <g>
       <use xlink:href="#m714405ec32" x="70.520288" y="270.947172" style="stroke: #000000; stroke-width: 0.6"/>
      </g>
     </g>
    </g>
    <g id="xtick_10">
     <g id="line2d_16">
      <g>
       <use xlink:href="#m714405ec32" x="76.569535" y="270.947172" style="stroke: #000000; stroke-width: 0.6"/>
      </g>
     </g>
    </g>
    <g id="xtick_11">
     <g id="line2d_17">
      <g>
       <use xlink:href="#m714405ec32" x="117.580283" y="270.947172" style="stroke: #000000; stroke-width: 0.6"/>
      </g>
     </g>
    </g>
    <g id="xtick_12">
     <g id="line2d_18">
      <g>
       <use xlink:href="#m714405ec32" x="138.404663" y="270.947172" style="stroke: #000000; stroke-width: 0.6"/>
      </g>
     </g>
    </g>
    <g id="xtick_13">
     <g id="line2d_19">
      <g>
       <use xlink:href="#m714405ec32" x="153.179796" y="270.947172" style="stroke: #000000; stroke-width: 0.6"/>
      </g>
     </g>
    </g>
    <g id="xtick_14">
     <g id="line2d_20">
      <g>
       <use xlink:href="#m714405ec32" x="164.640279" y="270.947172" style="stroke: #000000; stroke-width: 0.6"/>
      </g>
     </g>
    </g>
    <g id="xtick_15">
     <g id="line2d_21">
      <g>
       <use xlink:href="#m714405ec32" x="174.004176" y="270.947172" style="stroke: #000000; stroke-width: 0.6"/>
      </g>
     </g>
    </g>
    <g id="xtick_16">
     <g id="line2d_22">
      <g>
       <use xlink:href="#m714405ec32" x="181.921238" y="270.947172" style="stroke: #000000; stroke-width: 0.6"/>
      </g>
     </g>
    </g>
    <g id="xtick_17">
     <g id="line2d_23">
      <g>
       <use xlink:href="#m714405ec32" x="188.779309" y="270.947172" style="stroke: #000000; stroke-width: 0.6"/>
      </g>
     </g>
    </g>
    <g id="xtick_18">
     <g id="line2d_24">
      <g>
       <use xlink:href="#m714405ec32" x="194.828556" y="270.947172" style="stroke: #000000; stroke-width: 0.6"/>
      </g>
     </g>
    </g>
    <g id="xtick_19">
     <g id="line2d_25">
      <g>
       <use xlink:href="#m714405ec32" x="235.839304" y="270.947172" style="stroke: #000000; stroke-width: 0.6"/>
      </g>
     </g>
    </g>
    <g id="xtick_20">
     <g id="line2d_26">
      <g>
       <use xlink:href="#m714405ec32" x="256.663684" y="270.947172" style="stroke: #000000; stroke-width: 0.6"/>
      </g>
     </g>
    </g>
    <g id="xtick_21">
     <g id="line2d_27">
      <g>
       <use xlink:href="#m714405ec32" x="271.438817" y="270.947172" style="stroke: #000000; stroke-width: 0.6"/>
      </g>
     </g>
    </g>
    <g id="xtick_22">
     <g id="line2d_28">
      <g>
       <use xlink:href="#m714405ec32" x="282.8993" y="270.947172" style="stroke: #000000; stroke-width: 0.6"/>
      </g>
     </g>
    </g>
    <g id="xtick_23">
     <g id="line2d_29">
      <g>
       <use xlink:href="#m714405ec32" x="292.263197" y="270.947172" style="stroke: #000000; stroke-width: 0.6"/>
      </g>
     </g>
    </g>
    <g id="xtick_24">
     <g id="line2d_30">
      <g>
       <use xlink:href="#m714405ec32" x="300.180259" y="270.947172" style="stroke: #000000; stroke-width: 0.6"/>
      </g>
     </g>
    </g>
    <g id="xtick_25">
     <g id="line2d_31">
      <g>
       <use xlink:href="#m714405ec32" x="307.03833" y="270.947172" style="stroke: #000000; stroke-width: 0.6"/>
      </g>
     </g>
    </g>
    <g id="xtick_26">
     <g id="line2d_32">
      <g>
       <use xlink:href="#m714405ec32" x="313.087577" y="270.947172" style="stroke: #000000; stroke-width: 0.6"/>
      </g>
     </g>
    </g>
    <g id="xtick_27">
     <g id="line2d_33">
      <g>
       <use xlink:href="#m714405ec32" x="354.098325" y="270.947172" style="stroke: #000000; stroke-width: 0.6"/>
      </g>
     </g>
    </g>
    <g id="xtick_28">
     <g id="line2d_34">
      <g>
       <use xlink:href="#m714405ec32" x="374.922705" y="270.947172" style="stroke: #000000; stroke-width: 0.6"/>
      </g>
     </g>
    </g>
    <g id="xtick_29">
     <g id="line2d_35">
      <g>
       <use xlink:href="#m714405ec32" x="389.697838" y="270.947172" style="stroke: #000000; stroke-width: 0.6"/>
      </g>
     </g>
    </g>
    <g id="xtick_30">
     <g id="line2d_36">
      <g>
       <use xlink:href="#m714405ec32" x="401.158321" y="270.947172" style="stroke: #000000; stroke-width: 0.6"/>
      </g>
     </g>
    </g>
    <g id="xtick_31">
     <g id="line2d_37">
      <g>
       <use xlink:href="#m714405ec32" x="410.522218" y="270.947172" style="stroke: #000000; stroke-width: 0.6"/>
      </g>
     </g>
    </g>
    <g id="xtick_32">
     <g id="line2d_38">
      <g>
       <use xlink:href="#m714405ec32" x="418.43928" y="270.947172" style="stroke: #000000; stroke-width: 0.6"/>
      </g>
     </g>
    </g>
    <g id="xtick_33">
     <g id="line2d_39">
      <g>
       <use xlink:href="#m714405ec32" x="425.297351" y="270.947172" style="stroke: #000000; stroke-width: 0.6"/>
      </g>
     </g>
    </g>
    <g id="xtick_34">
     <g id="line2d_40">
      <g>
       <use xlink:href="#m714405ec32" x="431.346598" y="270.947172" style="stroke: #000000; stroke-width: 0.6"/>
      </g>
     </g>
    </g>
    <g id="xtick_35">
     <g id="line2d_41">
      <g>
       <use xlink:href="#m714405ec32" x="472.357346" y="270.947172" style="stroke: #000000; stroke-width: 0.6"/>
      </g>
     </g>
    </g>
    <g id="xtick_36">
     <g id="line2d_42">
      <g>
       <use xlink:href="#m714405ec32" x="493.181726" y="270.947172" style="stroke: #000000; stroke-width: 0.6"/>
      </g>
     </g>
    </g>
    <g id="xtick_37">
     <g id="line2d_43">
      <g>
       <use xlink:href="#m714405ec32" x="507.956859" y="270.947172" style="stroke: #000000; stroke-width: 0.6"/>
      </g>
     </g>
    </g>
    <g id="xtick_38">
     <g id="line2d_44">
      <g>
       <use xlink:href="#m714405ec32" x="519.417342" y="270.947172" style="stroke: #000000; stroke-width: 0.6"/>
      </g>
     </g>
    </g>
    <g id="xtick_39">
     <g id="line2d_45">
      <g>
       <use xlink:href="#m714405ec32" x="528.781239" y="270.947172" style="stroke: #000000; stroke-width: 0.6"/>
      </g>
     </g>
    </g>
    <g id="xtick_40">
     <g id="line2d_46">
      <g>
       <use xlink:href="#m714405ec32" x="536.698301" y="270.947172" style="stroke: #000000; stroke-width: 0.6"/>
      </g>
     </g>
    </g>
    <g id="xtick_41">
     <g id="line2d_47">
      <g>
       <use xlink:href="#m714405ec32" x="543.556372" y="270.947172" style="stroke: #000000; stroke-width: 0.6"/>
      </g>
     </g>
    </g>
    <g id="xtick_42">
     <g id="line2d_48">
      <g>
       <use xlink:href="#m714405ec32" x="549.605619" y="270.947172" style="stroke: #000000; stroke-width: 0.6"/>
      </g>
     </g>
    </g>
    <g id="xtick_43">
     <g id="line2d_49">
      <g>
       <use xlink:href="#m714405ec32" x="590.616367" y="270.947172" style="stroke: #000000; stroke-width: 0.6"/>
      </g>
     </g>
    </g>
    <g id="xtick_44">
     <g id="line2d_50">
      <g>
       <use xlink:href="#m714405ec32" x="611.440747" y="270.947172" style="stroke: #000000; stroke-width: 0.6"/>
      </g>
     </g>
    </g>
    <g id="xtick_45">
     <g id="line2d_51">
      <g>
       <use xlink:href="#m714405ec32" x="626.21588" y="270.947172" style="stroke: #000000; stroke-width: 0.6"/>
      </g>
     </g>
    </g>
    <g id="xtick_46">
     <g id="line2d_52">
      <g>
       <use xlink:href="#m714405ec32" x="637.676363" y="270.947172" style="stroke: #000000; stroke-width: 0.6"/>
      </g>
     </g>
    </g>
    <g id="xtick_47">
     <g id="line2d_53">
      <g>
       <use xlink:href="#m714405ec32" x="647.04026" y="270.947172" style="stroke: #000000; stroke-width: 0.6"/>
      </g>
     </g>
    </g>
    <g id="xtick_48">
     <g id="line2d_54">
      <g>
       <use xlink:href="#m714405ec32" x="654.957322" y="270.947172" style="stroke: #000000; stroke-width: 0.6"/>
      </g>
     </g>
    </g>
    <g id="xtick_49">
     <g id="line2d_55">
      <g>
       <use xlink:href="#m714405ec32" x="661.815393" y="270.947172" style="stroke: #000000; stroke-width: 0.6"/>
      </g>
     </g>
    </g>
    <g id="xtick_50">
     <g id="line2d_56">
      <g>
       <use xlink:href="#m714405ec32" x="667.86464" y="270.947172" style="stroke: #000000; stroke-width: 0.6"/>
      </g>
     </g>
    </g>
   </g>
   <g id="matplotlib.axis_2">
    <g id="ytick_1">
     <g id="line2d_57">
      <path d="M 52.416016 245.005188 
L 702.840631 245.005188 
" clip-path="url(#pb55b580436)" style="fill: none; stroke: #b0b0b0; stroke-opacity: 0.18; stroke-width: 0.8; stroke-linecap: square"/>
     </g>
     <g id="line2d_58">
      <defs>
       <path id="m98c1deb41a" d="M 0 0 
L -3.5 0 
" style="stroke: #000000; stroke-width: 0.8"/>
      </defs>
      <g>
       <use xlink:href="#m98c1deb41a" x="52.416016" y="245.005188" style="stroke: #000000; stroke-width: 0.8"/>
      </g>
     </g>
     <g id="text_1">
      <!-- −60 -->
      <g transform="translate(22.200859 249.183899) scale(0.11 -0.11)">
       <defs>
        <path id="DejaVuSans-c9c" d="M 678 2272 
L 4684 2272 
L 4684 1741 
L 678 1741 
L 678 2272 
z
" transform="scale(0.015625)"/>
        <path id="DejaVuSans-19" d="M 2113 2584 
Q 1688 2584 1439 2293 
Q 1191 2003 1191 1497 
Q 1191 994 1439 701 
Q 1688 409 2113 409 
Q 2538 409 2786 701 
Q 3034 994 3034 1497 
Q 3034 2003 2786 2293 
Q 2538 2584 2113 2584 
z
M 3366 4563 
L 3366 3988 
Q 3128 4100 2886 4159 
Q 2644 4219 2406 4219 
Q 1781 4219 1451 3797 
Q 1122 3375 1075 2522 
Q 1259 2794 1537 2939 
Q 1816 3084 2150 3084 
Q 2853 3084 3261 2657 
Q 3669 2231 3669 1497 
Q 3669 778 3244 343 
Q 2819 -91 2113 -91 
Q 1303 -91 875 529 
Q 447 1150 447 2328 
Q 447 3434 972 4092 
Q 1497 4750 2381 4750 
Q 2619 4750 2861 4703 
Q 3103 4656 3366 4563 
z
" transform="scale(0.015625)"/>
        <path id="DejaVuSans-13" d="M 2034 4250 
Q 1547 4250 1301 3770 
Q 1056 3291 1056 2328 
Q 1056 1369 1301 889 
Q 1547 409 2034 409 
Q 2525 409 2770 889 
Q 3016 1369 3016 2328 
Q 3016 3291 2770 3770 
Q 2525 4250 2034 4250 
z
M 2034 4750 
Q 2819 4750 3233 4129 
Q 3647 3509 3647 2328 
Q 3647 1150 3233 529 
Q 2819 -91 2034 -91 
Q 1250 -91 836 529 
Q 422 1150 422 2328 
Q 422 3509 836 4129 
Q 1250 4750 2034 4750 
z
" transform="scale(0.015625)"/>
       </defs>
       <use xlink:href="#DejaVuSans-c9c"/>
       <use xlink:href="#DejaVuSans-19" transform="translate(83.796875 0)"/>
       <use xlink:href="#DejaVuSans-13" transform="translate(147.421875 0)"/>
      </g>
     </g>
    </g>
    <g id="ytick_2">
     <g id="line2d_59">
      <path d="M 52.416016 211.416348 
L 702.840631 211.416348 
" clip-path="url(#pb55b580436)" style="fill: none; stroke: #b0b0b0; stroke-opacity: 0.18; stroke-width: 0.8; stroke-linecap: square"/>
     </g>
     <g id="line2d_60">
      <g>
       <use xlink:href="#m98c1deb41a" x="52.416016" y="211.416348" style="stroke: #000000; stroke-width: 0.8"/>
      </g>
     </g>
     <g id="text_2">
      <!-- −50 -->
      <g transform="translate(22.200859 215.595058) scale(0.11 -0.11)">
       <defs>
        <path id="DejaVuSans-18" d="M 691 4666 
L 3169 4666 
L 3169 4134 
L 1269 4134 
L 1269 2991 
Q 1406 3038 1543 3061 
Q 1681 3084 1819 3084 
Q 2600 3084 3056 2656 
Q 3513 2228 3513 1497 
Q 3513 744 3044 326 
Q 2575 -91 1722 -91 
Q 1428 -91 1123 -41 
Q 819 9 494 109 
L 494 744 
Q 775 591 1075 516 
Q 1375 441 1709 441 
Q 2250 441 2565 725 
Q 2881 1009 2881 1497 
Q 2881 1984 2565 2268 
Q 2250 2553 1709 2553 
Q 1456 2553 1204 2497 
Q 953 2441 691 2322 
L 691 4666 
z
" transform="scale(0.015625)"/>
       </defs>
       <use xlink:href="#DejaVuSans-c9c"/>
       <use xlink:href="#DejaVuSans-18" transform="translate(83.796875 0)"/>
       <use xlink:href="#DejaVuSans-13" transform="translate(147.421875 0)"/>
      </g>
     </g>
    </g>
    <g id="ytick_3">
     <g id="line2d_61">
      <path d="M 52.416016 177.827507 
L 702.840631 177.827507 
" clip-path="url(#pb55b580436)" style="fill: none; stroke: #b0b0b0; stroke-opacity: 0.18; stroke-width: 0.8; stroke-linecap: square"/>
     </g>
     <g id="line2d_62">
      <g>
       <use xlink:href="#m98c1deb41a" x="52.416016" y="177.827507" style="stroke: #000000; stroke-width: 0.8"/>
      </g>
     </g>
     <g id="text_3">
      <!-- −40 -->
      <g transform="translate(22.200859 182.006218) scale(0.11 -0.11)">
       <defs>
        <path id="DejaVuSans-17" d="M 2419 4116 
L 825 1625 
L 2419 1625 
L 2419 4116 
z
M 2253 4666 
L 3047 4666 
L 3047 1625 
L 3713 1625 
L 3713 1100 
L 3047 1100 
L 3047 0 
L 2419 0 
L 2419 1100 
L 313 1100 
L 313 1709 
L 2253 4666 
z
" transform="scale(0.015625)"/>
       </defs>
       <use xlink:href="#DejaVuSans-c9c"/>
       <use xlink:href="#DejaVuSans-17" transform="translate(83.796875 0)"/>
       <use xlink:href="#DejaVuSans-13" transform="translate(147.421875 0)"/>
      </g>
     </g>
    </g>
    <g id="ytick_4">
     <g id="line2d_63">
      <path d="M 52.416016 144.238666 
L 702.840631 144.238666 
" clip-path="url(#pb55b580436)" style="fill: none; stroke: #b0b0b0; stroke-opacity: 0.18; stroke-width: 0.8; stroke-linecap: square"/>
     </g>
     <g id="line2d_64">
      <g>
       <use xlink:href="#m98c1deb41a" x="52.416016" y="144.238666" style="stroke: #000000; stroke-width: 0.8"/>
      </g>
     </g>
     <g id="text_4">
      <!-- −30 -->
      <g transform="translate(22.200859 148.417377) scale(0.11 -0.11)">
       <defs>
        <path id="DejaVuSans-16" d="M 2597 2516 
Q 3050 2419 3304 2112 
Q 3559 1806 3559 1356 
Q 3559 666 3084 287 
Q 2609 -91 1734 -91 
Q 1441 -91 1130 -33 
Q 819 25 488 141 
L 488 750 
Q 750 597 1062 519 
Q 1375 441 1716 441 
Q 2309 441 2620 675 
Q 2931 909 2931 1356 
Q 2931 1769 2642 2001 
Q 2353 2234 1838 2234 
L 1294 2234 
L 1294 2753 
L 1863 2753 
Q 2328 2753 2575 2939 
Q 2822 3125 2822 3475 
Q 2822 3834 2567 4026 
Q 2313 4219 1838 4219 
Q 1578 4219 1281 4162 
Q 984 4106 628 3988 
L 628 4550 
Q 988 4650 1302 4700 
Q 1616 4750 1894 4750 
Q 2613 4750 3031 4423 
Q 3450 4097 3450 3541 
Q 3450 3153 3228 2886 
Q 3006 2619 2597 2516 
z
" transform="scale(0.015625)"/>
       </defs>
       <use xlink:href="#DejaVuSans-c9c"/>
       <use xlink:href="#DejaVuSans-16" transform="translate(83.796875 0)"/>
       <use xlink:href="#DejaVuSans-13" transform="translate(147.421875 0)"/>
      </g>
     </g>
    </g>
    <g id="ytick_5">
     <g id="line2d_65">
      <path d="M 52.416016 110.649825 
L 702.840631 110.649825 
" clip-path="url(#pb55b580436)" style="fill: none; stroke: #b0b0b0; stroke-opacity: 0.18; stroke-width: 0.8; stroke-linecap: square"/>
     </g>
     <g id="line2d_66">
      <g>
       <use xlink:href="#m98c1deb41a" x="52.416016" y="110.649825" style="stroke: #000000; stroke-width: 0.8"/>
      </g>
     </g>
     <g id="text_5">
      <!-- −20 -->
      <g transform="translate(22.200859 114.828536) scale(0.11 -0.11)">
       <defs>
        <path id="DejaVuSans-15" d="M 1228 531 
L 3431 531 
L 3431 0 
L 469 0 
L 469 531 
Q 828 903 1448 1529 
Q 2069 2156 2228 2338 
Q 2531 2678 2651 2914 
Q 2772 3150 2772 3378 
Q 2772 3750 2511 3984 
Q 2250 4219 1831 4219 
Q 1534 4219 1204 4116 
Q 875 4013 500 3803 
L 500 4441 
Q 881 4594 1212 4672 
Q 1544 4750 1819 4750 
Q 2544 4750 2975 4387 
Q 3406 4025 3406 3419 
Q 3406 3131 3298 2873 
Q 3191 2616 2906 2266 
Q 2828 2175 2409 1742 
Q 1991 1309 1228 531 
z
" transform="scale(0.015625)"/>
       </defs>
       <use xlink:href="#DejaVuSans-c9c"/>
       <use xlink:href="#DejaVuSans-15" transform="translate(83.796875 0)"/>
       <use xlink:href="#DejaVuSans-13" transform="translate(147.421875 0)"/>
      </g>
     </g>
    </g>
    <g id="ytick_6">
     <g id="line2d_67">
      <path d="M 52.416016 77.060985 
L 702.840631 77.060985 
" clip-path="url(#pb55b580436)" style="fill: none; stroke: #b0b0b0; stroke-opacity: 0.18; stroke-width: 0.8; stroke-linecap: square"/>
     </g>
     <g id="line2d_68">
      <g>
       <use xlink:href="#m98c1deb41a" x="52.416016" y="77.060985" style="stroke: #000000; stroke-width: 0.8"/>
      </g>
     </g>
     <g id="text_6">
      <!-- −10 -->
      <g transform="translate(22.200859 81.239696) scale(0.11 -0.11)">
       <defs>
        <path id="DejaVuSans-14" d="M 794 531 
L 1825 531 
L 1825 4091 
L 703 3866 
L 703 4441 
L 1819 4666 
L 2450 4666 
L 2450 531 
L 3481 531 
L 3481 0 
L 794 0 
L 794 531 
z
" transform="scale(0.015625)"/>
       </defs>
       <use xlink:href="#DejaVuSans-c9c"/>
       <use xlink:href="#DejaVuSans-14" transform="translate(83.796875 0)"/>
       <use xlink:href="#DejaVuSans-13" transform="translate(147.421875 0)"/>
      </g>
     </g>
    </g>
    <g id="ytick_7">
     <g id="line2d_69">
      <path d="M 52.416016 43.472144 
L 702.840631 43.472144 
" clip-path="url(#pb55b580436)" style="fill: none; stroke: #b0b0b0; stroke-opacity: 0.18; stroke-width: 0.8; stroke-linecap: square"/>
     </g>
     <g id="line2d_70">
      <g>
       <use xlink:href="#m98c1deb41a" x="52.416016" y="43.472144" style="stroke: #000000; stroke-width: 0.8"/>
      </g>
     </g>
     <g id="text_7">
      <!-- 0 -->
      <g transform="translate(38.417266 47.650855) scale(0.11 -0.11)">
       <use xlink:href="#DejaVuSans-13"/>
      </g>
     </g>
    </g>
    <g id="text_8">
     <!-- Normalised magnitude (dB) -->
     <g transform="translate(15.558281 227.766633) rotate(-90) scale(0.11 -0.11)">
      <defs>
       <path id="DejaVuSans-31" d="M 628 4666 
L 1478 4666 
L 3547 763 
L 3547 4666 
L 4159 4666 
L 4159 0 
L 3309 0 
L 1241 3903 
L 1241 0 
L 628 0 
L 628 4666 
z
" transform="scale(0.015625)"/>
       <path id="DejaVuSans-52" d="M 1959 3097 
Q 1497 3097 1228 2736 
Q 959 2375 959 1747 
Q 959 1119 1226 758 
Q 1494 397 1959 397 
Q 2419 397 2687 759 
Q 2956 1122 2956 1747 
Q 2956 2369 2687 2733 
Q 2419 3097 1959 3097 
z
M 1959 3584 
Q 2709 3584 3137 3096 
Q 3566 2609 3566 1747 
Q 3566 888 3137 398 
Q 2709 -91 1959 -91 
Q 1206 -91 779 398 
Q 353 888 353 1747 
Q 353 2609 779 3096 
Q 1206 3584 1959 3584 
z
" transform="scale(0.015625)"/>
       <path id="DejaVuSans-55" d="M 2631 2963 
Q 2534 3019 2420 3045 
Q 2306 3072 2169 3072 
Q 1681 3072 1420 2755 
Q 1159 2438 1159 1844 
L 1159 0 
L 581 0 
L 581 3500 
L 1159 3500 
L 1159 2956 
Q 1341 3275 1631 3429 
Q 1922 3584 2338 3584 
Q 2397 3584 2469 3576 
Q 2541 3569 2628 3553 
L 2631 2963 
z
" transform="scale(0.015625)"/>
       <path id="DejaVuSans-50" d="M 3328 2828 
Q 3544 3216 3844 3400 
Q 4144 3584 4550 3584 
Q 5097 3584 5394 3201 
Q 5691 2819 5691 2113 
L 5691 0 
L 5113 0 
L 5113 2094 
Q 5113 2597 4934 2840 
Q 4756 3084 4391 3084 
Q 3944 3084 3684 2787 
Q 3425 2491 3425 1978 
L 3425 0 
L 2847 0 
L 2847 2094 
Q 2847 2600 2669 2842 
Q 2491 3084 2119 3084 
Q 1678 3084 1418 2786 
Q 1159 2488 1159 1978 
L 1159 0 
L 581 0 
L 581 3500 
L 1159 3500 
L 1159 2956 
Q 1356 3278 1631 3431 
Q 1906 3584 2284 3584 
Q 2666 3584 2933 3390 
Q 3200 3197 3328 2828 
z
" transform="scale(0.015625)"/>
       <path id="DejaVuSans-44" d="M 2194 1759 
Q 1497 1759 1228 1600 
Q 959 1441 959 1056 
Q 959 750 1161 570 
Q 1363 391 1709 391 
Q 2188 391 2477 730 
Q 2766 1069 2766 1631 
L 2766 1759 
L 2194 1759 
z
M 3341 1997 
L 3341 0 
L 2766 0 
L 2766 531 
Q 2569 213 2275 61 
Q 1981 -91 1556 -91 
Q 1019 -91 701 211 
Q 384 513 384 1019 
Q 384 1609 779 1909 
Q 1175 2209 1959 2209 
L 2766 2209 
L 2766 2266 
Q 2766 2663 2505 2880 
Q 2244 3097 1772 3097 
Q 1472 3097 1187 3025 
Q 903 2953 641 2809 
L 641 3341 
Q 956 3463 1253 3523 
Q 1550 3584 1831 3584 
Q 2591 3584 2966 3190 
Q 3341 2797 3341 1997 
z
" transform="scale(0.015625)"/>
       <path id="DejaVuSans-4f" d="M 603 4863 
L 1178 4863 
L 1178 0 
L 603 0 
L 603 4863 
z
" transform="scale(0.015625)"/>
       <path id="DejaVuSans-4c" d="M 603 3500 
L 1178 3500 
L 1178 0 
L 603 0 
L 603 3500 
z
M 603 4863 
L 1178 4863 
L 1178 4134 
L 603 4134 
L 603 4863 
z
" transform="scale(0.015625)"/>
       <path id="DejaVuSans-56" d="M 2834 3397 
L 2834 2853 
Q 2591 2978 2328 3040 
Q 2066 3103 1784 3103 
Q 1356 3103 1142 2972 
Q 928 2841 928 2578 
Q 928 2378 1081 2264 
Q 1234 2150 1697 2047 
L 1894 2003 
Q 2506 1872 2764 1633 
Q 3022 1394 3022 966 
Q 3022 478 2636 193 
Q 2250 -91 1575 -91 
Q 1294 -91 989 -36 
Q 684 19 347 128 
L 347 722 
Q 666 556 975 473 
Q 1284 391 1588 391 
Q 1994 391 2212 530 
Q 2431 669 2431 922 
Q 2431 1156 2273 1281 
Q 2116 1406 1581 1522 
L 1381 1569 
Q 847 1681 609 1914 
Q 372 2147 372 2553 
Q 372 3047 722 3315 
Q 1072 3584 1716 3584 
Q 2034 3584 2315 3537 
Q 2597 3491 2834 3397 
z
" transform="scale(0.015625)"/>
       <path id="DejaVuSans-48" d="M 3597 1894 
L 3597 1613 
L 953 1613 
Q 991 1019 1311 708 
Q 1631 397 2203 397 
Q 2534 397 2845 478 
Q 3156 559 3463 722 
L 3463 178 
Q 3153 47 2828 -22 
Q 2503 -91 2169 -91 
Q 1331 -91 842 396 
Q 353 884 353 1716 
Q 353 2575 817 3079 
Q 1281 3584 2069 3584 
Q 2775 3584 3186 3129 
Q 3597 2675 3597 1894 
z
M 3022 2063 
Q 3016 2534 2758 2815 
Q 2500 3097 2075 3097 
Q 1594 3097 1305 2825 
Q 1016 2553 972 2059 
L 3022 2063 
z
" transform="scale(0.015625)"/>
       <path id="DejaVuSans-47" d="M 2906 2969 
L 2906 4863 
L 3481 4863 
L 3481 0 
L 2906 0 
L 2906 525 
Q 2725 213 2448 61 
Q 2172 -91 1784 -91 
Q 1150 -91 751 415 
Q 353 922 353 1747 
Q 353 2572 751 3078 
Q 1150 3584 1784 3584 
Q 2172 3584 2448 3432 
Q 2725 3281 2906 2969 
z
M 947 1747 
Q 947 1113 1208 752 
Q 1469 391 1925 391 
Q 2381 391 2643 752 
Q 2906 1113 2906 1747 
Q 2906 2381 2643 2742 
Q 2381 3103 1925 3103 
Q 1469 3103 1208 2742 
Q 947 2381 947 1747 
z
" transform="scale(0.015625)"/>
       <path id="DejaVuSans-3" transform="scale(0.015625)"/>
       <path id="DejaVuSans-4a" d="M 2906 1791 
Q 2906 2416 2648 2759 
Q 2391 3103 1925 3103 
Q 1463 3103 1205 2759 
Q 947 2416 947 1791 
Q 947 1169 1205 825 
Q 1463 481 1925 481 
Q 2391 481 2648 825 
Q 2906 1169 2906 1791 
z
M 3481 434 
Q 3481 -459 3084 -895 
Q 2688 -1331 1869 -1331 
Q 1566 -1331 1297 -1286 
Q 1028 -1241 775 -1147 
L 775 -588 
Q 1028 -725 1275 -790 
Q 1522 -856 1778 -856 
Q 2344 -856 2625 -561 
Q 2906 -266 2906 331 
L 2906 616 
Q 2728 306 2450 153 
Q 2172 0 1784 0 
Q 1141 0 747 490 
Q 353 981 353 1791 
Q 353 2603 747 3093 
Q 1141 3584 1784 3584 
Q 2172 3584 2450 3431 
Q 2728 3278 2906 2969 
L 2906 3500 
L 3481 3500 
L 3481 434 
z
" transform="scale(0.015625)"/>
       <path id="DejaVuSans-51" d="M 3513 2113 
L 3513 0 
L 2938 0 
L 2938 2094 
Q 2938 2591 2744 2837 
Q 2550 3084 2163 3084 
Q 1697 3084 1428 2787 
Q 1159 2491 1159 1978 
L 1159 0 
L 581 0 
L 581 3500 
L 1159 3500 
L 1159 2956 
Q 1366 3272 1645 3428 
Q 1925 3584 2291 3584 
Q 2894 3584 3203 3211 
Q 3513 2838 3513 2113 
z
" transform="scale(0.015625)"/>
       <path id="DejaVuSans-57" d="M 1172 4494 
L 1172 3500 
L 2356 3500 
L 2356 3053 
L 1172 3053 
L 1172 1153 
Q 1172 725 1289 603 
Q 1406 481 1766 481 
L 2356 481 
L 2356 0 
L 1766 0 
Q 1100 0 847 248 
Q 594 497 594 1153 
L 594 3053 
L 172 3053 
L 172 3500 
L 594 3500 
L 594 4494 
L 1172 4494 
z
" transform="scale(0.015625)"/>
       <path id="DejaVuSans-58" d="M 544 1381 
L 544 3500 
L 1119 3500 
L 1119 1403 
Q 1119 906 1312 657 
Q 1506 409 1894 409 
Q 2359 409 2629 706 
Q 2900 1003 2900 1516 
L 2900 3500 
L 3475 3500 
L 3475 0 
L 2900 0 
L 2900 538 
Q 2691 219 2414 64 
Q 2138 -91 1772 -91 
Q 1169 -91 856 284 
Q 544 659 544 1381 
z
M 1991 3584 
L 1991 3584 
z
" transform="scale(0.015625)"/>
       <path id="DejaVuSans-b" d="M 1984 4856 
Q 1566 4138 1362 3434 
Q 1159 2731 1159 2009 
Q 1159 1288 1364 580 
Q 1569 -128 1984 -844 
L 1484 -844 
Q 1016 -109 783 600 
Q 550 1309 550 2009 
Q 550 2706 781 3412 
Q 1013 4119 1484 4856 
L 1984 4856 
z
" transform="scale(0.015625)"/>
       <path id="DejaVuSans-25" d="M 1259 2228 
L 1259 519 
L 2272 519 
Q 2781 519 3026 730 
Q 3272 941 3272 1375 
Q 3272 1813 3026 2020 
Q 2781 2228 2272 2228 
L 1259 2228 
z
M 1259 4147 
L 1259 2741 
L 2194 2741 
Q 2656 2741 2882 2914 
Q 3109 3088 3109 3444 
Q 3109 3797 2882 3972 
Q 2656 4147 2194 4147 
L 1259 4147 
z
M 628 4666 
L 2241 4666 
Q 2963 4666 3353 4366 
Q 3744 4066 3744 3513 
Q 3744 3084 3544 2831 
Q 3344 2578 2956 2516 
Q 3422 2416 3680 2098 
Q 3938 1781 3938 1306 
Q 3938 681 3513 340 
Q 3088 0 2303 0 
L 628 0 
L 628 4666 
z
" transform="scale(0.015625)"/>
       <path id="DejaVuSans-c" d="M 513 4856 
L 1013 4856 
Q 1481 4119 1714 3412 
Q 1947 2706 1947 2009 
Q 1947 1309 1714 600 
Q 1481 -109 1013 -844 
L 513 -844 
Q 928 -128 1133 580 
Q 1338 1288 1338 2009 
Q 1338 2731 1133 3434 
Q 928 4138 513 4856 
z
" transform="scale(0.015625)"/>
      </defs>
      <use xlink:href="#DejaVuSans-31"/>
      <use xlink:href="#DejaVuSans-52" transform="translate(74.8125 0)"/>
      <use xlink:href="#DejaVuSans-55" transform="translate(136 0)"/>
      <use xlink:href="#DejaVuSans-50" transform="translate(175.359375 0)"/>
      <use xlink:href="#DejaVuSans-44" transform="translate(272.765625 0)"/>
      <use xlink:href="#DejaVuSans-4f" transform="translate(334.046875 0)"/>
      <use xlink:href="#DejaVuSans-4c" transform="translate(361.828125 0)"/>
      <use xlink:href="#DejaVuSans-56" transform="translate(389.609375 0)"/>
      <use xlink:href="#DejaVuSans-48" transform="translate(441.703125 0)"/>
      <use xlink:href="#DejaVuSans-47" transform="translate(503.234375 0)"/>
      <use xlink:href="#DejaVuSans-3" transform="translate(566.71875 0)"/>
      <use xlink:href="#DejaVuSans-50" transform="translate(598.5 0)"/>
      <use xlink:href="#DejaVuSans-44" transform="translate(695.90625 0)"/>
      <use xlink:href="#DejaVuSans-4a" transform="translate(757.1875 0)"/>
      <use xlink:href="#DejaVuSans-51" transform="translate(820.671875 0)"/>
      <use xlink:href="#DejaVuSans-4c" transform="translate(884.046875 0)"/>
      <use xlink:href="#DejaVuSans-57" transform="translate(911.828125 0)"/>
      <use xlink:href="#DejaVuSans-58" transform="translate(951.03125 0)"/>
      <use xlink:href="#DejaVuSans-47" transform="translate(1014.40625 0)"/>
      <use xlink:href="#DejaVuSans-48" transform="translate(1077.890625 0)"/>
      <use xlink:href="#DejaVuSans-3" transform="translate(1139.421875 0)"/>
      <use xlink:href="#DejaVuSans-b" transform="translate(1171.203125 0)"/>
      <use xlink:href="#DejaVuSans-47" transform="translate(1210.21875 0)"/>
      <use xlink:href="#DejaVuSans-25" transform="translate(1273.703125 0)"/>
      <use xlink:href="#DejaVuSans-c" transform="translate(1342.3125 0)"/>
     </g>
    </g>
   </g>
   <g id="line2d_71">
    <path d="M 81.980771 43.476253 
L 170.11597 43.598759 
L 198.398161 43.849757 
L 216.156746 44.216677 
L 229.311253 44.6944 
L 240.492584 45.320468 
L 249.700739 46.05062 
L 258.251169 46.955744 
L 265.486148 47.93089 
L 272.721127 49.130429 
L 279.298381 50.439037 
L 285.875635 51.972534 
L 292.452888 53.741392 
L 299.030142 55.74881 
L 305.607396 57.990311 
L 312.184649 60.454303 
L 319.419628 63.400858 
L 327.312333 66.864923 
L 335.862763 70.866362 
L 345.728643 75.74126 
L 356.909974 81.517992 
L 370.722207 88.91003 
L 389.138517 99.036283 
L 416.105257 114.143115 
L 467.407836 143.186248 
L 673.275876 260.115028 
L 673.275876 260.115028 
" clip-path="url(#pb55b580436)" style="fill: none; stroke: #007f86; stroke-width: 1.5; stroke-linecap: square"/>
   </g>
   <g id="line2d_72">
    <path d="M 81.980771 43.472144 
L 439.125645 43.580975 
L 468.723287 43.813985 
L 487.139597 44.164018 
L 500.95183 44.637553 
L 512.133161 45.236127 
L 521.341316 45.935526 
L 529.891746 46.804393 
L 537.78445 47.838348 
L 545.019429 49.01675 
L 551.596683 50.303803 
L 558.173937 51.813818 
L 564.75119 53.557664 
L 571.328444 55.538957 
L 577.905698 57.753561 
L 584.482951 60.19004 
L 591.71793 63.105474 
L 599.610635 66.533828 
L 608.161064 70.492712 
L 618.026945 75.309451 
L 630.523727 81.681155 
L 648.282312 91.018299 
L 673.275876 104.174988 
L 673.275876 104.174988 
" clip-path="url(#pb55b580436)" style="fill: none; stroke: #c75527; stroke-width: 1.5; stroke-linecap: square"/>
   </g>
   <g id="line2d_73">
    <path d="M 81.980771 43.47215 
L 335.205037 43.582105 
L 364.802679 43.817511 
L 383.218989 44.171088 
L 397.031222 44.649317 
L 408.212553 45.253665 
L 417.420708 45.959598 
L 425.971138 46.836283 
L 433.863842 47.879146 
L 441.098821 49.067235 
L 447.676075 50.364372 
L 454.253329 51.885662 
L 460.830582 53.641933 
L 467.407836 55.636789 
L 473.98509 57.866151 
L 480.562343 60.318775 
L 487.797322 63.254023 
L 495.690027 66.707402 
L 504.240456 70.69927 
L 514.106337 75.565548 
L 525.287668 81.335173 
L 539.099901 88.721393 
L 557.516211 98.843232 
L 584.482951 113.947222 
L 635.127804 142.615792 
L 673.275876 164.273393 
L 673.275876 164.273393 
" clip-path="url(#pb55b580436)" style="fill: none; stroke: #7259a3; stroke-width: 1.5; stroke-linecap: square"/>
   </g>
   <g id="patch_3">
    <path d="M 52.416016 270.947172 
L 52.416016 32.64 
" style="fill: none; stroke: #000000; stroke-width: 0.8; stroke-linejoin: miter; stroke-linecap: square"/>
   </g>
   <g id="patch_4">
    <path d="M 52.416016 270.947172 
L 702.840631 270.947172 
" style="fill: none; stroke: #000000; stroke-width: 0.8; stroke-linejoin: miter; stroke-linecap: square"/>
   </g>
   <g id="legend_1">
    <g id="patch_5">
     <path d="M 58.716016 266.447172 
L 249.711484 266.447172 
Q 251.511484 266.447172 251.511484 264.647172 
L 251.511484 225.045063 
Q 251.511484 223.245063 249.711484 223.245063 
L 58.716016 223.245063 
Q 56.916016 223.245063 56.916016 225.045063 
L 56.916016 264.647172 
Q 56.916016 266.447172 58.716016 266.447172 
z
" style="fill: #ffffff; opacity: 0.8; stroke: #cccccc; stroke-linejoin: miter"/>
    </g>
    <g id="line2d_74">
     <path d="M 60.516016 230.533657 
L 69.516016 230.533657 
L 78.516016 230.533657 
" style="fill: none; stroke: #007f86; stroke-width: 1.5; stroke-linecap: square"/>
    </g>
    <g id="text_9">
     <!-- Actual bus filter (DC-normalised) -->
     <g transform="translate(85.716016 233.683657) scale(0.09 -0.09)">
      <defs>
       <path id="DejaVuSans-24" d="M 2188 4044 
L 1331 1722 
L 3047 1722 
L 2188 4044 
z
M 1831 4666 
L 2547 4666 
L 4325 0 
L 3669 0 
L 3244 1197 
L 1141 1197 
L 716 0 
L 50 0 
L 1831 4666 
z
" transform="scale(0.015625)"/>
       <path id="DejaVuSans-46" d="M 3122 3366 
L 3122 2828 
Q 2878 2963 2633 3030 
Q 2388 3097 2138 3097 
Q 1578 3097 1268 2742 
Q 959 2388 959 1747 
Q 959 1106 1268 751 
Q 1578 397 2138 397 
Q 2388 397 2633 464 
Q 2878 531 3122 666 
L 3122 134 
Q 2881 22 2623 -34 
Q 2366 -91 2075 -91 
Q 1284 -91 818 406 
Q 353 903 353 1747 
Q 353 2603 823 3093 
Q 1294 3584 2113 3584 
Q 2378 3584 2631 3529 
Q 2884 3475 3122 3366 
z
" transform="scale(0.015625)"/>
       <path id="DejaVuSans-45" d="M 3116 1747 
Q 3116 2381 2855 2742 
Q 2594 3103 2138 3103 
Q 1681 3103 1420 2742 
Q 1159 2381 1159 1747 
Q 1159 1113 1420 752 
Q 1681 391 2138 391 
Q 2594 391 2855 752 
Q 3116 1113 3116 1747 
z
M 1159 2969 
Q 1341 3281 1617 3432 
Q 1894 3584 2278 3584 
Q 2916 3584 3314 3078 
Q 3713 2572 3713 1747 
Q 3713 922 3314 415 
Q 2916 -91 2278 -91 
Q 1894 -91 1617 61 
Q 1341 213 1159 525 
L 1159 0 
L 581 0 
L 581 4863 
L 1159 4863 
L 1159 2969 
z
" transform="scale(0.015625)"/>
       <path id="DejaVuSans-13af" d="M 3431 3500 
L 3431 0 
L 2853 0 
L 2853 3053 
L 1275 3053 
L 1275 0 
L 697 0 
L 697 3053 
L 147 3053 
L 147 3500 
L 697 3500 
L 697 3744 
Q 697 4316 967 4589 
Q 1238 4863 1797 4863 
L 2375 4863 
L 2375 4384 
L 1825 4384 
Q 1516 4384 1395 4259 
Q 1275 4134 1275 3809 
L 1275 3500 
L 3431 3500 
z
M 2853 4856 
L 3431 4856 
L 3431 4128 
L 2853 4128 
L 2853 4856 
z
" transform="scale(0.015625)"/>
       <path id="DejaVuSans-27" d="M 1259 4147 
L 1259 519 
L 2022 519 
Q 2988 519 3436 956 
Q 3884 1394 3884 2338 
Q 3884 3275 3436 3711 
Q 2988 4147 2022 4147 
L 1259 4147 
z
M 628 4666 
L 1925 4666 
Q 3281 4666 3915 4102 
Q 4550 3538 4550 2338 
Q 4550 1131 3912 565 
Q 3275 0 1925 0 
L 628 0 
L 628 4666 
z
" transform="scale(0.015625)"/>
       <path id="DejaVuSans-26" d="M 4122 4306 
L 4122 3641 
Q 3803 3938 3442 4084 
Q 3081 4231 2675 4231 
Q 1875 4231 1450 3742 
Q 1025 3253 1025 2328 
Q 1025 1406 1450 917 
Q 1875 428 2675 428 
Q 3081 428 3442 575 
Q 3803 722 4122 1019 
L 4122 359 
Q 3791 134 3420 21 
Q 3050 -91 2638 -91 
Q 1578 -91 968 557 
Q 359 1206 359 2328 
Q 359 3453 968 4101 
Q 1578 4750 2638 4750 
Q 3056 4750 3426 4639 
Q 3797 4528 4122 4306 
z
" transform="scale(0.015625)"/>
       <path id="DejaVuSans-10" d="M 313 2009 
L 1997 2009 
L 1997 1497 
L 313 1497 
L 313 2009 
z
" transform="scale(0.015625)"/>
      </defs>
      <use xlink:href="#DejaVuSans-24"/>
      <use xlink:href="#DejaVuSans-46" transform="translate(66.65625 0)"/>
      <use xlink:href="#DejaVuSans-57" transform="translate(121.640625 0)"/>
      <use xlink:href="#DejaVuSans-58" transform="translate(160.84375 0)"/>
      <use xlink:href="#DejaVuSans-44" transform="translate(224.21875 0)"/>
      <use xlink:href="#DejaVuSans-4f" transform="translate(285.5 0)"/>
      <use xlink:href="#DejaVuSans-3" transform="translate(313.28125 0)"/>
      <use xlink:href="#DejaVuSans-45" transform="translate(345.0625 0)"/>
      <use xlink:href="#DejaVuSans-58" transform="translate(408.546875 0)"/>
      <use xlink:href="#DejaVuSans-56" transform="translate(471.921875 0)"/>
      <use xlink:href="#DejaVuSans-3" transform="translate(524.015625 0)"/>
      <use xlink:href="#DejaVuSans-13af" transform="translate(555.796875 0)"/>
      <use xlink:href="#DejaVuSans-4f" transform="translate(618.78125 0)"/>
      <use xlink:href="#DejaVuSans-57" transform="translate(646.5625 0)"/>
      <use xlink:href="#DejaVuSans-48" transform="translate(685.765625 0)"/>
      <use xlink:href="#DejaVuSans-55" transform="translate(747.296875 0)"/>
      <use xlink:href="#DejaVuSans-3" transform="translate(788.40625 0)"/>
      <use xlink:href="#DejaVuSans-b" transform="translate(820.1875 0)"/>
      <use xlink:href="#DejaVuSans-27" transform="translate(859.203125 0)"/>
      <use xlink:href="#DejaVuSans-26" transform="translate(936.203125 0)"/>
      <use xlink:href="#DejaVuSans-10" transform="translate(1006.03125 0)"/>
      <use xlink:href="#DejaVuSans-51" transform="translate(1042.109375 0)"/>
      <use xlink:href="#DejaVuSans-52" transform="translate(1105.484375 0)"/>
      <use xlink:href="#DejaVuSans-55" transform="translate(1166.671875 0)"/>
      <use xlink:href="#DejaVuSans-50" transform="translate(1206.03125 0)"/>
      <use xlink:href="#DejaVuSans-44" transform="translate(1303.4375 0)"/>
      <use xlink:href="#DejaVuSans-4f" transform="translate(1364.71875 0)"/>
      <use xlink:href="#DejaVuSans-4c" transform="translate(1392.5 0)"/>
      <use xlink:href="#DejaVuSans-56" transform="translate(1420.28125 0)"/>
      <use xlink:href="#DejaVuSans-48" transform="translate(1472.375 0)"/>
      <use xlink:href="#DejaVuSans-47" transform="translate(1533.90625 0)"/>
      <use xlink:href="#DejaVuSans-c" transform="translate(1597.390625 0)"/>
     </g>
    </g>
    <g id="line2d_75">
     <path d="M 60.516016 244.03436 
L 69.516016 244.03436 
L 78.516016 244.03436 
" style="fill: none; stroke: #c75527; stroke-width: 1.5; stroke-linecap: square"/>
    </g>
    <g id="text_10">
     <!-- Optional 47 pF feedback, NOT fitted -->
     <g transform="translate(85.716016 247.18436) scale(0.09 -0.09)">
      <defs>
       <path id="DejaVuSans-32" d="M 2522 4238 
Q 1834 4238 1429 3725 
Q 1025 3213 1025 2328 
Q 1025 1447 1429 934 
Q 1834 422 2522 422 
Q 3209 422 3611 934 
Q 4013 1447 4013 2328 
Q 4013 3213 3611 3725 
Q 3209 4238 2522 4238 
z
M 2522 4750 
Q 3503 4750 4090 4092 
Q 4678 3434 4678 2328 
Q 4678 1225 4090 567 
Q 3503 -91 2522 -91 
Q 1538 -91 948 565 
Q 359 1222 359 2328 
Q 359 3434 948 4092 
Q 1538 4750 2522 4750 
z
" transform="scale(0.015625)"/>
       <path id="DejaVuSans-53" d="M 1159 525 
L 1159 -1331 
L 581 -1331 
L 581 3500 
L 1159 3500 
L 1159 2969 
Q 1341 3281 1617 3432 
Q 1894 3584 2278 3584 
Q 2916 3584 3314 3078 
Q 3713 2572 3713 1747 
Q 3713 922 3314 415 
Q 2916 -91 2278 -91 
Q 1894 -91 1617 61 
Q 1341 213 1159 525 
z
M 3116 1747 
Q 3116 2381 2855 2742 
Q 2594 3103 2138 3103 
Q 1681 3103 1420 2742 
Q 1159 2381 1159 1747 
Q 1159 1113 1420 752 
Q 1681 391 2138 391 
Q 2594 391 2855 752 
Q 3116 1113 3116 1747 
z
" transform="scale(0.015625)"/>
       <path id="DejaVuSans-1a" d="M 525 4666 
L 3525 4666 
L 3525 4397 
L 1831 0 
L 1172 0 
L 2766 4134 
L 525 4134 
L 525 4666 
z
" transform="scale(0.015625)"/>
       <path id="DejaVuSans-29" d="M 628 4666 
L 3309 4666 
L 3309 4134 
L 1259 4134 
L 1259 2759 
L 3109 2759 
L 3109 2228 
L 1259 2228 
L 1259 0 
L 628 0 
L 628 4666 
z
" transform="scale(0.015625)"/>
       <path id="DejaVuSans-49" d="M 2375 4863 
L 2375 4384 
L 1825 4384 
Q 1516 4384 1395 4259 
Q 1275 4134 1275 3809 
L 1275 3500 
L 2222 3500 
L 2222 3053 
L 1275 3053 
L 1275 0 
L 697 0 
L 697 3053 
L 147 3053 
L 147 3500 
L 697 3500 
L 697 3744 
Q 697 4328 969 4595 
Q 1241 4863 1831 4863 
L 2375 4863 
z
" transform="scale(0.015625)"/>
       <path id="DejaVuSans-4e" d="M 581 4863 
L 1159 4863 
L 1159 1991 
L 2875 3500 
L 3609 3500 
L 1753 1863 
L 3688 0 
L 2938 0 
L 1159 1709 
L 1159 0 
L 581 0 
L 581 4863 
z
" transform="scale(0.015625)"/>
       <path id="DejaVuSans-f" d="M 750 794 
L 1409 794 
L 1409 256 
L 897 -744 
L 494 -744 
L 750 256 
L 750 794 
z
" transform="scale(0.015625)"/>
       <path id="DejaVuSans-37" d="M -19 4666 
L 3928 4666 
L 3928 4134 
L 2272 4134 
L 2272 0 
L 1638 0 
L 1638 4134 
L -19 4134 
L -19 4666 
z
" transform="scale(0.015625)"/>
      </defs>
      <use xlink:href="#DejaVuSans-32"/>
      <use xlink:href="#DejaVuSans-53" transform="translate(78.71875 0)"/>
      <use xlink:href="#DejaVuSans-57" transform="translate(142.203125 0)"/>
      <use xlink:href="#DejaVuSans-4c" transform="translate(181.40625 0)"/>
      <use xlink:href="#DejaVuSans-52" transform="translate(209.1875 0)"/>
      <use xlink:href="#DejaVuSans-51" transform="translate(270.375 0)"/>
      <use xlink:href="#DejaVuSans-44" transform="translate(333.75 0)"/>
      <use xlink:href="#DejaVuSans-4f" transform="translate(395.03125 0)"/>
      <use xlink:href="#DejaVuSans-3" transform="translate(422.8125 0)"/>
      <use xlink:href="#DejaVuSans-17" transform="translate(454.59375 0)"/>
      <use xlink:href="#DejaVuSans-1a" transform="translate(518.21875 0)"/>
      <use xlink:href="#DejaVuSans-3" transform="translate(581.84375 0)"/>
      <use xlink:href="#DejaVuSans-53" transform="translate(613.625 0)"/>
      <use xlink:href="#DejaVuSans-29" transform="translate(677.109375 0)"/>
      <use xlink:href="#DejaVuSans-3" transform="translate(734.625 0)"/>
      <use xlink:href="#DejaVuSans-49" transform="translate(766.40625 0)"/>
      <use xlink:href="#DejaVuSans-48" transform="translate(801.609375 0)"/>
      <use xlink:href="#DejaVuSans-48" transform="translate(863.140625 0)"/>
      <use xlink:href="#DejaVuSans-47" transform="translate(924.671875 0)"/>
      <use xlink:href="#DejaVuSans-45" transform="translate(988.15625 0)"/>
      <use xlink:href="#DejaVuSans-44" transform="translate(1051.640625 0)"/>
      <use xlink:href="#DejaVuSans-46" transform="translate(1112.921875 0)"/>
      <use xlink:href="#DejaVuSans-4e" transform="translate(1167.90625 0)"/>
      <use xlink:href="#DejaVuSans-f" transform="translate(1225.8125 0)"/>
      <use xlink:href="#DejaVuSans-3" transform="translate(1257.59375 0)"/>
      <use xlink:href="#DejaVuSans-31" transform="translate(1289.375 0)"/>
      <use xlink:href="#DejaVuSans-32" transform="translate(1364.1875 0)"/>
      <use xlink:href="#DejaVuSans-37" transform="translate(1442.90625 0)"/>
      <use xlink:href="#DejaVuSans-3" transform="translate(1503.984375 0)"/>
      <use xlink:href="#DejaVuSans-13af" transform="translate(1535.765625 0)"/>
      <use xlink:href="#DejaVuSans-57" transform="translate(1598.75 0)"/>
      <use xlink:href="#DejaVuSans-57" transform="translate(1637.953125 0)"/>
      <use xlink:href="#DejaVuSans-48" transform="translate(1677.15625 0)"/>
      <use xlink:href="#DejaVuSans-47" transform="translate(1738.6875 0)"/>
     </g>
    </g>
    <g id="line2d_76">
     <path d="M 60.516016 257.535063 
L 69.516016 257.535063 
L 78.516016 257.535063 
" style="fill: none; stroke: #7259a3; stroke-width: 1.5; stroke-linecap: square"/>
    </g>
    <g id="text_11">
     <!-- Illustrative 1 kΩ / 10 nF low-pass -->
     <g transform="translate(85.716016 260.685063) scale(0.09 -0.09)">
      <defs>
       <path id="DejaVuSans-2c" d="M 628 4666 
L 1259 4666 
L 1259 0 
L 628 0 
L 628 4666 
z
" transform="scale(0.015625)"/>
       <path id="DejaVuSans-59" d="M 191 3500 
L 800 3500 
L 1894 563 
L 2988 3500 
L 3597 3500 
L 2284 0 
L 1503 0 
L 191 3500 
z
" transform="scale(0.015625)"/>
       <path id="DejaVuSans-33d" d="M 4647 556 
L 4647 0 
L 2772 0 
L 2772 556 
Q 3325 859 3634 1378 
Q 3944 1897 3944 2528 
Q 3944 3278 3531 3731 
Q 3119 4184 2444 4184 
Q 1769 4184 1355 3729 
Q 941 3275 941 2528 
Q 941 1897 1250 1378 
Q 1563 859 2119 556 
L 2119 0 
L 244 0 
L 244 556 
L 1241 556 
Q 747 991 519 1456 
Q 294 1922 294 2497 
Q 294 3491 894 4106 
Q 1491 4722 2444 4722 
Q 3391 4722 3994 4106 
Q 4594 3494 4594 2528 
Q 4594 1922 4372 1459 
Q 4150 997 3647 556 
L 4647 556 
z
" transform="scale(0.015625)"/>
       <path id="DejaVuSans-12" d="M 1625 4666 
L 2156 4666 
L 531 -594 
L 0 -594 
L 1625 4666 
z
" transform="scale(0.015625)"/>
       <path id="DejaVuSans-5a" d="M 269 3500 
L 844 3500 
L 1563 769 
L 2278 3500 
L 2956 3500 
L 3675 769 
L 4391 3500 
L 4966 3500 
L 4050 0 
L 3372 0 
L 2619 2869 
L 1863 0 
L 1184 0 
L 269 3500 
z
" transform="scale(0.015625)"/>
      </defs>
      <use xlink:href="#DejaVuSans-2c"/>
      <use xlink:href="#DejaVuSans-4f" transform="translate(29.5 0)"/>
      <use xlink:href="#DejaVuSans-4f" transform="translate(57.28125 0)"/>
      <use xlink:href="#DejaVuSans-58" transform="translate(85.0625 0)"/>
      <use xlink:href="#DejaVuSans-56" transform="translate(148.4375 0)"/>
      <use xlink:href="#DejaVuSans-57" transform="translate(200.53125 0)"/>
      <use xlink:href="#DejaVuSans-55" transform="translate(239.734375 0)"/>
      <use xlink:href="#DejaVuSans-44" transform="translate(280.84375 0)"/>
      <use xlink:href="#DejaVuSans-57" transform="translate(342.125 0)"/>
      <use xlink:href="#DejaVuSans-4c" transform="translate(381.328125 0)"/>
      <use xlink:href="#DejaVuSans-59" transform="translate(409.109375 0)"/>
      <use xlink:href="#DejaVuSans-48" transform="translate(468.296875 0)"/>
      <use xlink:href="#DejaVuSans-3" transform="translate(529.828125 0)"/>
      <use xlink:href="#DejaVuSans-14" transform="translate(561.609375 0)"/>
      <use xlink:href="#DejaVuSans-3" transform="translate(625.234375 0)"/>
      <use xlink:href="#DejaVuSans-4e" transform="translate(657.015625 0)"/>
      <use xlink:href="#DejaVuSans-33d" transform="translate(714.921875 0)"/>
      <use xlink:href="#DejaVuSans-3" transform="translate(791.34375 0)"/>
      <use xlink:href="#DejaVuSans-12" transform="translate(823.125 0)"/>
      <use xlink:href="#DejaVuSans-3" transform="translate(856.8125 0)"/>
      <use xlink:href="#DejaVuSans-14" transform="translate(888.59375 0)"/>
      <use xlink:href="#DejaVuSans-13" transform="translate(952.21875 0)"/>
      <use xlink:href="#DejaVuSans-3" transform="translate(1015.84375 0)"/>
      <use xlink:href="#DejaVuSans-51" transform="translate(1047.625 0)"/>
      <use xlink:href="#DejaVuSans-29" transform="translate(1111 0)"/>
      <use xlink:href="#DejaVuSans-3" transform="translate(1168.515625 0)"/>
      <use xlink:href="#DejaVuSans-4f" transform="translate(1200.296875 0)"/>
      <use xlink:href="#DejaVuSans-52" transform="translate(1228.078125 0)"/>
      <use xlink:href="#DejaVuSans-5a" transform="translate(1289.265625 0)"/>
      <use xlink:href="#DejaVuSans-10" transform="translate(1371.046875 0)"/>
      <use xlink:href="#DejaVuSans-53" transform="translate(1407.125 0)"/>
      <use xlink:href="#DejaVuSans-44" transform="translate(1470.609375 0)"/>
      <use xlink:href="#DejaVuSans-56" transform="translate(1531.890625 0)"/>
      <use xlink:href="#DejaVuSans-56" transform="translate(1583.984375 0)"/>
     </g>
    </g>
   </g>
  </g>
  <g id="axes_2">
   <g id="patch_6">
    <path d="M 52.416016 524.634345 
L 702.840631 524.634345 
L 702.840631 286.327172 
L 52.416016 286.327172 
z
" style="fill: #ffffff"/>
   </g>
   <g id="matplotlib.axis_3">
    <g id="xtick_51">
     <g id="line2d_77">
      <path d="M 81.980771 524.634345 
L 81.980771 286.327172 
" clip-path="url(#pfcc9f8c7c9)" style="fill: none; stroke: #b0b0b0; stroke-opacity: 0.18; stroke-width: 0.8; stroke-linecap: square"/>
     </g>
     <g id="line2d_78">
      <g>
       <use xlink:href="#m4e989d42c2" x="81.980771" y="524.634345" style="stroke: #000000; stroke-width: 0.8"/>
      </g>
     </g>
     <g id="text_12">
      <!-- $\mathdefault{10^{1}}$ -->
      <g transform="translate(72.300771 541.864345) scale(0.11 -0.11)">
       <use xlink:href="#DejaVuSans-14" transform="translate(0 0.665625)"/>
       <use xlink:href="#DejaVuSans-13" transform="translate(63.623047 0.665625)"/>
       <use xlink:href="#DejaVuSans-14" transform="translate(128.203125 41.965625) scale(0.7)"/>
      </g>
     </g>
    </g>
    <g id="xtick_52">
     <g id="line2d_79">
      <path d="M 200.239792 524.634345 
L 200.239792 286.327172 
" clip-path="url(#pfcc9f8c7c9)" style="fill: none; stroke: #b0b0b0; stroke-opacity: 0.18; stroke-width: 0.8; stroke-linecap: square"/>
     </g>
     <g id="line2d_80">
      <g>
       <use xlink:href="#m4e989d42c2" x="200.239792" y="524.634345" style="stroke: #000000; stroke-width: 0.8"/>
      </g>
     </g>
     <g id="text_13">
      <!-- $\mathdefault{10^{2}}$ -->
      <g transform="translate(190.559792 541.974345) scale(0.11 -0.11)">
       <use xlink:href="#DejaVuSans-14" transform="translate(0 0.746875)"/>
       <use xlink:href="#DejaVuSans-13" transform="translate(63.623047 0.746875)"/>
       <use xlink:href="#DejaVuSans-15" transform="translate(128.203125 42.046875) scale(0.7)"/>
      </g>
     </g>
    </g>
    <g id="xtick_53">
     <g id="line2d_81">
      <path d="M 318.498813 524.634345 
L 318.498813 286.327172 
" clip-path="url(#pfcc9f8c7c9)" style="fill: none; stroke: #b0b0b0; stroke-opacity: 0.18; stroke-width: 0.8; stroke-linecap: square"/>
     </g>
     <g id="line2d_82">
      <g>
       <use xlink:href="#m4e989d42c2" x="318.498813" y="524.634345" style="stroke: #000000; stroke-width: 0.8"/>
      </g>
     </g>
     <g id="text_14">
      <!-- $\mathdefault{10^{3}}$ -->
      <g transform="translate(308.818813 541.974345) scale(0.11 -0.11)">
       <use xlink:href="#DejaVuSans-14" transform="translate(0 0.746875)"/>
       <use xlink:href="#DejaVuSans-13" transform="translate(63.623047 0.746875)"/>
       <use xlink:href="#DejaVuSans-16" transform="translate(128.203125 42.046875) scale(0.7)"/>
      </g>
     </g>
    </g>
    <g id="xtick_54">
     <g id="line2d_83">
      <path d="M 436.757834 524.634345 
L 436.757834 286.327172 
" clip-path="url(#pfcc9f8c7c9)" style="fill: none; stroke: #b0b0b0; stroke-opacity: 0.18; stroke-width: 0.8; stroke-linecap: square"/>
     </g>
     <g id="line2d_84">
      <g>
       <use xlink:href="#m4e989d42c2" x="436.757834" y="524.634345" style="stroke: #000000; stroke-width: 0.8"/>
      </g>
     </g>
     <g id="text_15">
      <!-- $\mathdefault{10^{4}}$ -->
      <g transform="translate(427.077834 541.864345) scale(0.11 -0.11)">
       <use xlink:href="#DejaVuSans-14" transform="translate(0 0.665625)"/>
       <use xlink:href="#DejaVuSans-13" transform="translate(63.623047 0.665625)"/>
       <use xlink:href="#DejaVuSans-17" transform="translate(128.203125 41.965625) scale(0.7)"/>
      </g>
     </g>
    </g>
    <g id="xtick_55">
     <g id="line2d_85">
      <path d="M 555.016855 524.634345 
L 555.016855 286.327172 
" clip-path="url(#pfcc9f8c7c9)" style="fill: none; stroke: #b0b0b0; stroke-opacity: 0.18; stroke-width: 0.8; stroke-linecap: square"/>
     </g>
     <g id="line2d_86">
      <g>
       <use xlink:href="#m4e989d42c2" x="555.016855" y="524.634345" style="stroke: #000000; stroke-width: 0.8"/>
      </g>
     </g>
     <g id="text_16">
      <!-- $\mathdefault{10^{5}}$ -->
      <g transform="translate(545.336855 541.864345) scale(0.11 -0.11)">
       <use xlink:href="#DejaVuSans-14" transform="translate(0 0.665625)"/>
       <use xlink:href="#DejaVuSans-13" transform="translate(63.623047 0.665625)"/>
       <use xlink:href="#DejaVuSans-18" transform="translate(128.203125 41.965625) scale(0.7)"/>
      </g>
     </g>
    </g>
    <g id="xtick_56">
     <g id="line2d_87">
      <path d="M 673.275876 524.634345 
L 673.275876 286.327172 
" clip-path="url(#pfcc9f8c7c9)" style="fill: none; stroke: #b0b0b0; stroke-opacity: 0.18; stroke-width: 0.8; stroke-linecap: square"/>
     </g>
     <g id="line2d_88">
      <g>
       <use xlink:href="#m4e989d42c2" x="673.275876" y="524.634345" style="stroke: #000000; stroke-width: 0.8"/>
      </g>
     </g>
     <g id="text_17">
      <!-- $\mathdefault{10^{6}}$ -->
      <g transform="translate(663.595876 541.974345) scale(0.11 -0.11)">
       <use xlink:href="#DejaVuSans-14" transform="translate(0 0.746875)"/>
       <use xlink:href="#DejaVuSans-13" transform="translate(63.623047 0.746875)"/>
       <use xlink:href="#DejaVuSans-19" transform="translate(128.203125 42.046875) scale(0.7)"/>
      </g>
     </g>
    </g>
    <g id="xtick_57">
     <g id="line2d_89">
      <g>
       <use xlink:href="#m714405ec32" x="55.745155" y="524.634345" style="stroke: #000000; stroke-width: 0.6"/>
      </g>
     </g>
    </g>
    <g id="xtick_58">
     <g id="line2d_90">
      <g>
       <use xlink:href="#m714405ec32" x="63.662217" y="524.634345" style="stroke: #000000; stroke-width: 0.6"/>
      </g>
     </g>
    </g>
    <g id="xtick_59">
     <g id="line2d_91">
      <g>
       <use xlink:href="#m714405ec32" x="70.520288" y="524.634345" style="stroke: #000000; stroke-width: 0.6"/>
      </g>
     </g>
    </g>
    <g id="xtick_60">
     <g id="line2d_92">
      <g>
       <use xlink:href="#m714405ec32" x="76.569535" y="524.634345" style="stroke: #000000; stroke-width: 0.6"/>
      </g>
     </g>
    </g>
    <g id="xtick_61">
     <g id="line2d_93">
      <g>
       <use xlink:href="#m714405ec32" x="117.580283" y="524.634345" style="stroke: #000000; stroke-width: 0.6"/>
      </g>
     </g>
    </g>
    <g id="xtick_62">
     <g id="line2d_94">
      <g>
       <use xlink:href="#m714405ec32" x="138.404663" y="524.634345" style="stroke: #000000; stroke-width: 0.6"/>
      </g>
     </g>
    </g>
    <g id="xtick_63">
     <g id="line2d_95">
      <g>
       <use xlink:href="#m714405ec32" x="153.179796" y="524.634345" style="stroke: #000000; stroke-width: 0.6"/>
      </g>
     </g>
    </g>
    <g id="xtick_64">
     <g id="line2d_96">
      <g>
       <use xlink:href="#m714405ec32" x="164.640279" y="524.634345" style="stroke: #000000; stroke-width: 0.6"/>
      </g>
     </g>
    </g>
    <g id="xtick_65">
     <g id="line2d_97">
      <g>
       <use xlink:href="#m714405ec32" x="174.004176" y="524.634345" style="stroke: #000000; stroke-width: 0.6"/>
      </g>
     </g>
    </g>
    <g id="xtick_66">
     <g id="line2d_98">
      <g>
       <use xlink:href="#m714405ec32" x="181.921238" y="524.634345" style="stroke: #000000; stroke-width: 0.6"/>
      </g>
     </g>
    </g>
    <g id="xtick_67">
     <g id="line2d_99">
      <g>
       <use xlink:href="#m714405ec32" x="188.779309" y="524.634345" style="stroke: #000000; stroke-width: 0.6"/>
      </g>
     </g>
    </g>
    <g id="xtick_68">
     <g id="line2d_100">
      <g>
       <use xlink:href="#m714405ec32" x="194.828556" y="524.634345" style="stroke: #000000; stroke-width: 0.6"/>
      </g>
     </g>
    </g>
    <g id="xtick_69">
     <g id="line2d_101">
      <g>
       <use xlink:href="#m714405ec32" x="235.839304" y="524.634345" style="stroke: #000000; stroke-width: 0.6"/>
      </g>
     </g>
    </g>
    <g id="xtick_70">
     <g id="line2d_102">
      <g>
       <use xlink:href="#m714405ec32" x="256.663684" y="524.634345" style="stroke: #000000; stroke-width: 0.6"/>
      </g>
     </g>
    </g>
    <g id="xtick_71">
     <g id="line2d_103">
      <g>
       <use xlink:href="#m714405ec32" x="271.438817" y="524.634345" style="stroke: #000000; stroke-width: 0.6"/>
      </g>
     </g>
    </g>
    <g id="xtick_72">
     <g id="line2d_104">
      <g>
       <use xlink:href="#m714405ec32" x="282.8993" y="524.634345" style="stroke: #000000; stroke-width: 0.6"/>
      </g>
     </g>
    </g>
    <g id="xtick_73">
     <g id="line2d_105">
      <g>
       <use xlink:href="#m714405ec32" x="292.263197" y="524.634345" style="stroke: #000000; stroke-width: 0.6"/>
      </g>
     </g>
    </g>
    <g id="xtick_74">
     <g id="line2d_106">
      <g>
       <use xlink:href="#m714405ec32" x="300.180259" y="524.634345" style="stroke: #000000; stroke-width: 0.6"/>
      </g>
     </g>
    </g>
    <g id="xtick_75">
     <g id="line2d_107">
      <g>
       <use xlink:href="#m714405ec32" x="307.03833" y="524.634345" style="stroke: #000000; stroke-width: 0.6"/>
      </g>
     </g>
    </g>
    <g id="xtick_76">
     <g id="line2d_108">
      <g>
       <use xlink:href="#m714405ec32" x="313.087577" y="524.634345" style="stroke: #000000; stroke-width: 0.6"/>
      </g>
     </g>
    </g>
    <g id="xtick_77">
     <g id="line2d_109">
      <g>
       <use xlink:href="#m714405ec32" x="354.098325" y="524.634345" style="stroke: #000000; stroke-width: 0.6"/>
      </g>
     </g>
    </g>
    <g id="xtick_78">
     <g id="line2d_110">
      <g>
       <use xlink:href="#m714405ec32" x="374.922705" y="524.634345" style="stroke: #000000; stroke-width: 0.6"/>
      </g>
     </g>
    </g>
    <g id="xtick_79">
     <g id="line2d_111">
      <g>
       <use xlink:href="#m714405ec32" x="389.697838" y="524.634345" style="stroke: #000000; stroke-width: 0.6"/>
      </g>
     </g>
    </g>
    <g id="xtick_80">
     <g id="line2d_112">
      <g>
       <use xlink:href="#m714405ec32" x="401.158321" y="524.634345" style="stroke: #000000; stroke-width: 0.6"/>
      </g>
     </g>
    </g>
    <g id="xtick_81">
     <g id="line2d_113">
      <g>
       <use xlink:href="#m714405ec32" x="410.522218" y="524.634345" style="stroke: #000000; stroke-width: 0.6"/>
      </g>
     </g>
    </g>
    <g id="xtick_82">
     <g id="line2d_114">
      <g>
       <use xlink:href="#m714405ec32" x="418.43928" y="524.634345" style="stroke: #000000; stroke-width: 0.6"/>
      </g>
     </g>
    </g>
    <g id="xtick_83">
     <g id="line2d_115">
      <g>
       <use xlink:href="#m714405ec32" x="425.297351" y="524.634345" style="stroke: #000000; stroke-width: 0.6"/>
      </g>
     </g>
    </g>
    <g id="xtick_84">
     <g id="line2d_116">
      <g>
       <use xlink:href="#m714405ec32" x="431.346598" y="524.634345" style="stroke: #000000; stroke-width: 0.6"/>
      </g>
     </g>
    </g>
    <g id="xtick_85">
     <g id="line2d_117">
      <g>
       <use xlink:href="#m714405ec32" x="472.357346" y="524.634345" style="stroke: #000000; stroke-width: 0.6"/>
      </g>
     </g>
    </g>
    <g id="xtick_86">
     <g id="line2d_118">
      <g>
       <use xlink:href="#m714405ec32" x="493.181726" y="524.634345" style="stroke: #000000; stroke-width: 0.6"/>
      </g>
     </g>
    </g>
    <g id="xtick_87">
     <g id="line2d_119">
      <g>
       <use xlink:href="#m714405ec32" x="507.956859" y="524.634345" style="stroke: #000000; stroke-width: 0.6"/>
      </g>
     </g>
    </g>
    <g id="xtick_88">
     <g id="line2d_120">
      <g>
       <use xlink:href="#m714405ec32" x="519.417342" y="524.634345" style="stroke: #000000; stroke-width: 0.6"/>
      </g>
     </g>
    </g>
    <g id="xtick_89">
     <g id="line2d_121">
      <g>
       <use xlink:href="#m714405ec32" x="528.781239" y="524.634345" style="stroke: #000000; stroke-width: 0.6"/>
      </g>
     </g>
    </g>
    <g id="xtick_90">
     <g id="line2d_122">
      <g>
       <use xlink:href="#m714405ec32" x="536.698301" y="524.634345" style="stroke: #000000; stroke-width: 0.6"/>
      </g>
     </g>
    </g>
    <g id="xtick_91">
     <g id="line2d_123">
      <g>
       <use xlink:href="#m714405ec32" x="543.556372" y="524.634345" style="stroke: #000000; stroke-width: 0.6"/>
      </g>
     </g>
    </g>
    <g id="xtick_92">
     <g id="line2d_124">
      <g>
       <use xlink:href="#m714405ec32" x="549.605619" y="524.634345" style="stroke: #000000; stroke-width: 0.6"/>
      </g>
     </g>
    </g>
    <g id="xtick_93">
     <g id="line2d_125">
      <g>
       <use xlink:href="#m714405ec32" x="590.616367" y="524.634345" style="stroke: #000000; stroke-width: 0.6"/>
      </g>
     </g>
    </g>
    <g id="xtick_94">
     <g id="line2d_126">
      <g>
       <use xlink:href="#m714405ec32" x="611.440747" y="524.634345" style="stroke: #000000; stroke-width: 0.6"/>
      </g>
     </g>
    </g>
    <g id="xtick_95">
     <g id="line2d_127">
      <g>
       <use xlink:href="#m714405ec32" x="626.21588" y="524.634345" style="stroke: #000000; stroke-width: 0.6"/>
      </g>
     </g>
    </g>
    <g id="xtick_96">
     <g id="line2d_128">
      <g>
       <use xlink:href="#m714405ec32" x="637.676363" y="524.634345" style="stroke: #000000; stroke-width: 0.6"/>
      </g>
     </g>
    </g>
    <g id="xtick_97">
     <g id="line2d_129">
      <g>
       <use xlink:href="#m714405ec32" x="647.04026" y="524.634345" style="stroke: #000000; stroke-width: 0.6"/>
      </g>
     </g>
    </g>
    <g id="xtick_98">
     <g id="line2d_130">
      <g>
       <use xlink:href="#m714405ec32" x="654.957322" y="524.634345" style="stroke: #000000; stroke-width: 0.6"/>
      </g>
     </g>
    </g>
    <g id="xtick_99">
     <g id="line2d_131">
      <g>
       <use xlink:href="#m714405ec32" x="661.815393" y="524.634345" style="stroke: #000000; stroke-width: 0.6"/>
      </g>
     </g>
    </g>
    <g id="xtick_100">
     <g id="line2d_132">
      <g>
       <use xlink:href="#m714405ec32" x="667.86464" y="524.634345" style="stroke: #000000; stroke-width: 0.6"/>
      </g>
     </g>
    </g>
    <g id="text_18">
     <!-- Frequency (Hz) -->
     <g transform="translate(336.152308 556.974345) scale(0.11 -0.11)">
      <defs>
       <path id="DejaVuSans-54" d="M 947 1747 
Q 947 1113 1208 752 
Q 1469 391 1925 391 
Q 2381 391 2643 752 
Q 2906 1113 2906 1747 
Q 2906 2381 2643 2742 
Q 2381 3103 1925 3103 
Q 1469 3103 1208 2742 
Q 947 2381 947 1747 
z
M 2906 525 
Q 2725 213 2448 61 
Q 2172 -91 1784 -91 
Q 1150 -91 751 415 
Q 353 922 353 1747 
Q 353 2572 751 3078 
Q 1150 3584 1784 3584 
Q 2172 3584 2448 3432 
Q 2725 3281 2906 2969 
L 2906 3500 
L 3481 3500 
L 3481 -1331 
L 2906 -1331 
L 2906 525 
z
" transform="scale(0.015625)"/>
       <path id="DejaVuSans-5c" d="M 2059 -325 
Q 1816 -950 1584 -1140 
Q 1353 -1331 966 -1331 
L 506 -1331 
L 506 -850 
L 844 -850 
Q 1081 -850 1212 -737 
Q 1344 -625 1503 -206 
L 1606 56 
L 191 3500 
L 800 3500 
L 1894 763 
L 2988 3500 
L 3597 3500 
L 2059 -325 
z
" transform="scale(0.015625)"/>
       <path id="DejaVuSans-2b" d="M 628 4666 
L 1259 4666 
L 1259 2753 
L 3553 2753 
L 3553 4666 
L 4184 4666 
L 4184 0 
L 3553 0 
L 3553 2222 
L 1259 2222 
L 1259 0 
L 628 0 
L 628 4666 
z
" transform="scale(0.015625)"/>
       <path id="DejaVuSans-5d" d="M 353 3500 
L 3084 3500 
L 3084 2975 
L 922 459 
L 3084 459 
L 3084 0 
L 275 0 
L 275 525 
L 2438 3041 
L 353 3041 
L 353 3500 
z
" transform="scale(0.015625)"/>
      </defs>
      <use xlink:href="#DejaVuSans-29"/>
      <use xlink:href="#DejaVuSans-55" transform="translate(50.234375 0)"/>
      <use xlink:href="#DejaVuSans-48" transform="translate(89.140625 0)"/>
      <use xlink:href="#DejaVuSans-54" transform="translate(150.671875 0)"/>
      <use xlink:href="#DejaVuSans-58" transform="translate(214.15625 0)"/>
      <use xlink:href="#DejaVuSans-48" transform="translate(277.53125 0)"/>
      <use xlink:href="#DejaVuSans-51" transform="translate(339.0625 0)"/>
      <use xlink:href="#DejaVuSans-46" transform="translate(402.4375 0)"/>
      <use xlink:href="#DejaVuSans-5c" transform="translate(457.421875 0)"/>
      <use xlink:href="#DejaVuSans-3" transform="translate(516.609375 0)"/>
      <use xlink:href="#DejaVuSans-b" transform="translate(548.390625 0)"/>
      <use xlink:href="#DejaVuSans-2b" transform="translate(587.40625 0)"/>
      <use xlink:href="#DejaVuSans-5d" transform="translate(662.609375 0)"/>
      <use xlink:href="#DejaVuSans-c" transform="translate(715.09375 0)"/>
     </g>
    </g>
   </g>
   <g id="matplotlib.axis_4">
    <g id="ytick_8">
     <g id="line2d_133">
      <path d="M 52.416016 489.802615 
L 702.840631 489.802615 
" clip-path="url(#pfcc9f8c7c9)" style="fill: none; stroke: #b0b0b0; stroke-opacity: 0.18; stroke-width: 0.8; stroke-linecap: square"/>
     </g>
     <g id="line2d_134">
      <g>
       <use xlink:href="#m98c1deb41a" x="52.416016" y="489.802615" style="stroke: #000000; stroke-width: 0.8"/>
      </g>
     </g>
     <g id="text_19">
      <!-- −80 -->
      <g transform="translate(22.200859 493.981326) scale(0.11 -0.11)">
       <defs>
        <path id="DejaVuSans-1b" d="M 2034 2216 
Q 1584 2216 1326 1975 
Q 1069 1734 1069 1313 
Q 1069 891 1326 650 
Q 1584 409 2034 409 
Q 2484 409 2743 651 
Q 3003 894 3003 1313 
Q 3003 1734 2745 1975 
Q 2488 2216 2034 2216 
z
M 1403 2484 
Q 997 2584 770 2862 
Q 544 3141 544 3541 
Q 544 4100 942 4425 
Q 1341 4750 2034 4750 
Q 2731 4750 3128 4425 
Q 3525 4100 3525 3541 
Q 3525 3141 3298 2862 
Q 3072 2584 2669 2484 
Q 3125 2378 3379 2068 
Q 3634 1759 3634 1313 
Q 3634 634 3220 271 
Q 2806 -91 2034 -91 
Q 1263 -91 848 271 
Q 434 634 434 1313 
Q 434 1759 690 2068 
Q 947 2378 1403 2484 
z
M 1172 3481 
Q 1172 3119 1398 2916 
Q 1625 2713 2034 2713 
Q 2441 2713 2670 2916 
Q 2900 3119 2900 3481 
Q 2900 3844 2670 4047 
Q 2441 4250 2034 4250 
Q 1625 4250 1398 4047 
Q 1172 3844 1172 3481 
z
" transform="scale(0.015625)"/>
       </defs>
       <use xlink:href="#DejaVuSans-c9c"/>
       <use xlink:href="#DejaVuSans-1b" transform="translate(83.796875 0)"/>
       <use xlink:href="#DejaVuSans-13" transform="translate(147.421875 0)"/>
      </g>
     </g>
    </g>
    <g id="ytick_9">
     <g id="line2d_135">
      <path d="M 52.416016 441.639036 
L 702.840631 441.639036 
" clip-path="url(#pfcc9f8c7c9)" style="fill: none; stroke: #b0b0b0; stroke-opacity: 0.18; stroke-width: 0.8; stroke-linecap: square"/>
     </g>
     <g id="line2d_136">
      <g>
       <use xlink:href="#m98c1deb41a" x="52.416016" y="441.639036" style="stroke: #000000; stroke-width: 0.8"/>
      </g>
     </g>
     <g id="text_20">
      <!-- −60 -->
      <g transform="translate(22.200859 445.817747) scale(0.11 -0.11)">
       <use xlink:href="#DejaVuSans-c9c"/>
       <use xlink:href="#DejaVuSans-19" transform="translate(83.796875 0)"/>
       <use xlink:href="#DejaVuSans-13" transform="translate(147.421875 0)"/>
      </g>
     </g>
    </g>
    <g id="ytick_10">
     <g id="line2d_137">
      <path d="M 52.416016 393.475458 
L 702.840631 393.475458 
" clip-path="url(#pfcc9f8c7c9)" style="fill: none; stroke: #b0b0b0; stroke-opacity: 0.18; stroke-width: 0.8; stroke-linecap: square"/>
     </g>
     <g id="line2d_138">
      <g>
       <use xlink:href="#m98c1deb41a" x="52.416016" y="393.475458" style="stroke: #000000; stroke-width: 0.8"/>
      </g>
     </g>
     <g id="text_21">
      <!-- −40 -->
      <g transform="translate(22.200859 397.654169) scale(0.11 -0.11)">
       <use xlink:href="#DejaVuSans-c9c"/>
       <use xlink:href="#DejaVuSans-17" transform="translate(83.796875 0)"/>
       <use xlink:href="#DejaVuSans-13" transform="translate(147.421875 0)"/>
      </g>
     </g>
    </g>
    <g id="ytick_11">
     <g id="line2d_139">
      <path d="M 52.416016 345.311879 
L 702.840631 345.311879 
" clip-path="url(#pfcc9f8c7c9)" style="fill: none; stroke: #b0b0b0; stroke-opacity: 0.18; stroke-width: 0.8; stroke-linecap: square"/>
     </g>
     <g id="line2d_140">
      <g>
       <use xlink:href="#m98c1deb41a" x="52.416016" y="345.311879" style="stroke: #000000; stroke-width: 0.8"/>
      </g>
     </g>
     <g id="text_22">
      <!-- −20 -->
      <g transform="translate(22.200859 349.49059) scale(0.11 -0.11)">
       <use xlink:href="#DejaVuSans-c9c"/>
       <use xlink:href="#DejaVuSans-15" transform="translate(83.796875 0)"/>
       <use xlink:href="#DejaVuSans-13" transform="translate(147.421875 0)"/>
      </g>
     </g>
    </g>
    <g id="ytick_12">
     <g id="line2d_141">
      <path d="M 52.416016 297.148301 
L 702.840631 297.148301 
" clip-path="url(#pfcc9f8c7c9)" style="fill: none; stroke: #b0b0b0; stroke-opacity: 0.18; stroke-width: 0.8; stroke-linecap: square"/>
     </g>
     <g id="line2d_142">
      <g>
       <use xlink:href="#m98c1deb41a" x="52.416016" y="297.148301" style="stroke: #000000; stroke-width: 0.8"/>
      </g>
     </g>
     <g id="text_23">
      <!-- 0 -->
      <g transform="translate(38.417266 301.327012) scale(0.11 -0.11)">
       <use xlink:href="#DejaVuSans-13"/>
      </g>
     </g>
    </g>
    <g id="text_24">
     <!-- Phase (°) -->
     <g transform="translate(15.558281 430.692243) rotate(-90) scale(0.11 -0.11)">
      <defs>
       <path id="DejaVuSans-33" d="M 1259 4147 
L 1259 2394 
L 2053 2394 
Q 2494 2394 2734 2622 
Q 2975 2850 2975 3272 
Q 2975 3691 2734 3919 
Q 2494 4147 2053 4147 
L 1259 4147 
z
M 628 4666 
L 2053 4666 
Q 2838 4666 3239 4311 
Q 3641 3956 3641 3272 
Q 3641 2581 3239 2228 
Q 2838 1875 2053 1875 
L 1259 1875 
L 1259 0 
L 628 0 
L 628 4666 
z
" transform="scale(0.015625)"/>
       <path id="DejaVuSans-4b" d="M 3513 2113 
L 3513 0 
L 2938 0 
L 2938 2094 
Q 2938 2591 2744 2837 
Q 2550 3084 2163 3084 
Q 1697 3084 1428 2787 
Q 1159 2491 1159 1978 
L 1159 0 
L 581 0 
L 581 4863 
L 1159 4863 
L 1159 2956 
Q 1366 3272 1645 3428 
Q 1925 3584 2291 3584 
Q 2894 3584 3203 3211 
Q 3513 2838 3513 2113 
z
" transform="scale(0.015625)"/>
       <path id="DejaVuSans-72" d="M 1600 4347 
Q 1350 4347 1178 4173 
Q 1006 4000 1006 3750 
Q 1006 3503 1178 3333 
Q 1350 3163 1600 3163 
Q 1850 3163 2022 3333 
Q 2194 3503 2194 3750 
Q 2194 3997 2020 4172 
Q 1847 4347 1600 4347 
z
M 1600 4750 
Q 1800 4750 1984 4673 
Q 2169 4597 2303 4453 
Q 2447 4313 2519 4134 
Q 2591 3956 2591 3750 
Q 2591 3338 2302 3052 
Q 2013 2766 1594 2766 
Q 1172 2766 890 3047 
Q 609 3328 609 3750 
Q 609 4169 896 4459 
Q 1184 4750 1600 4750 
z
" transform="scale(0.015625)"/>
      </defs>
      <use xlink:href="#DejaVuSans-33"/>
      <use xlink:href="#DejaVuSans-4b" transform="translate(60.296875 0)"/>
      <use xlink:href="#DejaVuSans-44" transform="translate(123.671875 0)"/>
      <use xlink:href="#DejaVuSans-56" transform="translate(184.953125 0)"/>
      <use xlink:href="#DejaVuSans-48" transform="translate(237.046875 0)"/>
      <use xlink:href="#DejaVuSans-3" transform="translate(298.578125 0)"/>
      <use xlink:href="#DejaVuSans-b" transform="translate(330.359375 0)"/>
      <use xlink:href="#DejaVuSans-72" transform="translate(369.375 0)"/>
      <use xlink:href="#DejaVuSans-c" transform="translate(419.375 0)"/>
     </g>
    </g>
   </g>
   <g id="line2d_143">
    <path d="M 81.980771 299.464064 
L 97.108454 300.257018 
L 110.262962 301.164052 
L 122.102018 302.204291 
L 132.625624 303.352641 
L 141.833779 304.568811 
L 150.384209 305.909651 
L 158.276913 307.360097 
L 165.511892 308.897917 
L 172.746872 310.66473 
L 179.324125 312.497123 
L 185.901379 314.573252 
L 191.820907 316.675125 
L 197.740435 319.022907 
L 203.002238 321.337021 
L 208.264041 323.884782 
L 213.525844 326.685938 
L 218.787647 329.760596 
L 223.391725 332.690997 
L 227.995802 335.859028 
L 232.59988 339.27672 
L 237.203957 342.954689 
L 241.808035 346.901495 
L 246.412113 351.122925 
L 251.01619 355.621185 
L 256.277993 361.097971 
L 261.539796 366.921544 
L 266.801599 373.06989 
L 272.721127 380.33318 
L 279.298381 388.756866 
L 288.506536 400.961885 
L 305.607396 423.714818 
L 312.184649 432.082629 
L 318.104178 439.28136 
L 323.365981 445.363777 
L 328.627783 451.115884 
L 333.889586 456.517923 
L 338.493664 460.949667 
L 343.097742 465.10474 
L 347.701819 468.986285 
L 352.305897 472.600825 
L 356.909974 475.957478 
L 361.514052 479.067254 
L 366.775855 482.33479 
L 372.037658 485.315496 
L 377.299461 488.029456 
L 382.561264 490.496701 
L 387.823067 492.736778 
L 393.742595 495.008651 
L 399.662123 497.041953 
L 406.239377 499.049847 
L 412.81663 500.821646 
L 420.051609 502.529745 
L 427.286589 504.016258 
L 435.179293 505.418163 
L 443.729723 506.714021 
L 452.937878 507.889312 
L 463.461484 508.999006 
L 474.642815 509.954205 
L 487.139597 510.802729 
L 501.609555 511.559207 
L 518.710415 512.217638 
L 538.442176 512.749304 
L 562.778014 513.17767 
L 594.348832 513.5022 
L 639.074157 513.724412 
L 673.275876 513.802201 
L 673.275876 513.802201 
" clip-path="url(#pfcc9f8c7c9)" style="fill: none; stroke: #007f86; stroke-width: 1.5; stroke-linecap: square"/>
   </g>
   <g id="line2d_144">
    <path d="M 81.980771 297.159317 
L 216.156746 297.298477 
L 268.11705 297.561327 
L 301.661043 297.941937 
L 326.654607 298.439397 
L 346.386368 299.044109 
L 362.829503 299.759323 
L 377.299461 300.608692 
L 389.796243 301.561309 
L 400.977574 302.633527 
L 410.843454 303.793401 
L 420.051609 305.095335 
L 428.602039 306.530337 
L 436.494744 308.082092 
L 443.729723 309.726599 
L 450.306976 311.432308 
L 456.88423 313.36513 
L 462.803758 315.322192 
L 468.723287 317.508587 
L 474.642815 319.948435 
L 479.904618 322.350603 
L 485.166421 324.99189 
L 490.428224 327.891323 
L 495.690027 331.067818 
L 500.294104 334.088853 
L 504.898182 337.347197 
L 509.502259 340.852653 
L 514.106337 344.612966 
L 518.710415 348.633092 
L 523.972217 353.547224 
L 529.23402 358.797214 
L 534.495823 364.368758 
L 540.415352 370.989705 
L 546.992605 378.721459 
L 554.88531 388.382498 
L 577.247972 416.03983 
L 583.1675 422.902842 
L 588.429303 428.683429 
L 593.033381 433.448667 
L 597.637459 437.908599 
L 602.241536 442.039068 
L 606.187888 445.303216 
L 610.134241 448.303326 
L 614.080593 451.033418 
L 618.026945 453.489577 
L 621.973297 455.669555 
L 625.919649 457.572378 
L 629.866002 459.197993 
L 633.812354 460.546942 
L 637.758706 461.620085 
L 641.047333 462.304376 
L 644.33596 462.798308 
L 647.624586 463.10229 
L 650.913213 463.216592 
L 654.20184 463.141318 
L 657.490467 462.876398 
L 660.779094 462.421597 
L 664.067721 461.776531 
L 667.356347 460.940708 
L 671.3027 459.685145 
L 673.275876 458.953765 
L 673.275876 458.953765 
" clip-path="url(#pfcc9f8c7c9)" style="fill: none; stroke: #c75527; stroke-width: 1.5; stroke-linecap: square"/>
   </g>
   <g id="line2d_145">
    <path d="M 81.980771 297.234996 
L 147.095582 297.456338 
L 185.243653 297.795713 
L 212.868119 298.256882 
L 233.915331 298.818357 
L 251.673916 299.508109 
L 266.801599 300.316136 
L 279.956106 301.240401 
L 291.795163 302.300385 
L 302.318769 303.470505 
L 311.526924 304.709694 
L 320.077354 306.075861 
L 327.970058 307.553631 
L 335.205037 309.120324 
L 342.440016 310.920169 
L 349.01727 312.786638 
L 354.936798 314.677659 
L 360.856326 316.791804 
L 366.775855 319.153164 
L 372.037658 321.480512 
L 377.299461 324.042654 
L 382.561264 326.859371 
L 387.823067 329.950776 
L 392.427144 332.896786 
L 397.031222 336.081267 
L 401.635299 339.516177 
L 406.239377 343.212012 
L 410.843454 347.177171 
L 415.447532 351.417223 
L 420.051609 355.934105 
L 425.313412 361.43175 
L 430.575215 367.275181 
L 435.837018 373.441744 
L 441.756547 380.722728 
L 448.3338 389.161503 
L 457.541955 401.377635 
L 473.98509 423.26365 
L 481.220069 432.468261 
L 487.139597 439.648509 
L 492.4014 445.712202 
L 497.663203 451.44412 
L 502.925006 456.825131 
L 507.529083 461.238221 
L 512.133161 465.374729 
L 516.737238 469.238051 
L 521.341316 472.834909 
L 525.945394 476.17457 
L 530.549471 479.268147 
L 535.811274 482.518227 
L 541.073077 485.482653 
L 546.33488 488.181519 
L 551.596683 490.634839 
L 556.858486 492.862121 
L 562.778014 495.120884 
L 568.697542 497.142351 
L 575.274796 499.138472 
L 581.85205 500.89982 
L 589.087029 502.597795 
L 596.322008 504.075464 
L 604.214712 505.469004 
L 612.765142 506.75711 
L 621.973297 507.925358 
L 632.496903 509.028392 
L 643.678234 509.977852 
L 656.832742 510.86024 
L 671.3027 511.602606 
L 673.275876 511.688593 
L 673.275876 511.688593 
" clip-path="url(#pfcc9f8c7c9)" style="fill: none; stroke: #7259a3; stroke-width: 1.5; stroke-linecap: square"/>
   </g>
   <g id="patch_7">
    <path d="M 52.416016 524.634345 
L 52.416016 286.327172 
" style="fill: none; stroke: #000000; stroke-width: 0.8; stroke-linejoin: miter; stroke-linecap: square"/>
   </g>
   <g id="patch_8">
    <path d="M 52.416016 524.634345 
L 702.840631 524.634345 
" style="fill: none; stroke: #000000; stroke-width: 0.8; stroke-linejoin: miter; stroke-linecap: square"/>
   </g>
  </g>
  <g id="text_25">
   <!-- Three different circuits — do not confuse the bus filter with current sensing -->
   <g transform="translate(106.291475 17.229938) scale(0.132 -0.132)">
    <defs>
     <path id="DejaVuSans-13ae" d="M 4531 4863 
L 4531 4384 
L 3981 4384 
Q 3672 4384 3551 4259 
Q 3431 4134 3431 3809 
L 3431 3500 
L 4378 3500 
L 4378 3053 
L 3431 3053 
L 3431 0 
L 2853 0 
L 2853 3053 
L 1275 3053 
L 1275 0 
L 697 0 
L 697 3053 
L 147 3053 
L 147 3500 
L 697 3500 
L 697 3744 
Q 697 4328 969 4595 
Q 1241 4863 1831 4863 
L 2375 4863 
L 2375 4384 
L 1825 4384 
Q 1516 4384 1394 4259 
Q 1275 4134 1275 3809 
L 1275 3500 
L 2853 3500 
L 2853 3744 
Q 2853 4328 3125 4595 
Q 3397 4863 3988 4863 
L 4531 4863 
z
" transform="scale(0.015625)"/>
     <path id="DejaVuSans-af6" d="M 313 1978 
L 6088 1978 
L 6088 1528 
L 313 1528 
L 313 1978 
z
" transform="scale(0.015625)"/>
    </defs>
    <use xlink:href="#DejaVuSans-37"/>
    <use xlink:href="#DejaVuSans-4b" transform="translate(61.078125 0)"/>
    <use xlink:href="#DejaVuSans-55" transform="translate(124.453125 0)"/>
    <use xlink:href="#DejaVuSans-48" transform="translate(163.359375 0)"/>
    <use xlink:href="#DejaVuSans-48" transform="translate(224.890625 0)"/>
    <use xlink:href="#DejaVuSans-3" transform="translate(286.421875 0)"/>
    <use xlink:href="#DejaVuSans-47" transform="translate(318.203125 0)"/>
    <use xlink:href="#DejaVuSans-4c" transform="translate(381.6875 0)"/>
    <use xlink:href="#DejaVuSans-13ae" transform="translate(409.46875 0)"/>
    <use xlink:href="#DejaVuSans-48" transform="translate(478.359375 0)"/>
    <use xlink:href="#DejaVuSans-55" transform="translate(539.890625 0)"/>
    <use xlink:href="#DejaVuSans-48" transform="translate(578.796875 0)"/>
    <use xlink:href="#DejaVuSans-51" transform="translate(640.328125 0)"/>
    <use xlink:href="#DejaVuSans-57" transform="translate(703.703125 0)"/>
    <use xlink:href="#DejaVuSans-3" transform="translate(742.90625 0)"/>
    <use xlink:href="#DejaVuSans-46" transform="translate(774.6875 0)"/>
    <use xlink:href="#DejaVuSans-4c" transform="translate(829.671875 0)"/>
    <use xlink:href="#DejaVuSans-55" transform="translate(857.453125 0)"/>
    <use xlink:href="#DejaVuSans-46" transform="translate(896.359375 0)"/>
    <use xlink:href="#DejaVuSans-58" transform="translate(951.34375 0)"/>
    <use xlink:href="#DejaVuSans-4c" transform="translate(1014.71875 0)"/>
    <use xlink:href="#DejaVuSans-57" transform="translate(1042.5 0)"/>
    <use xlink:href="#DejaVuSans-56" transform="translate(1081.703125 0)"/>
    <use xlink:href="#DejaVuSans-3" transform="translate(1133.796875 0)"/>
    <use xlink:href="#DejaVuSans-af6" transform="translate(1165.578125 0)"/>
    <use xlink:href="#DejaVuSans-3" transform="translate(1265.578125 0)"/>
    <use xlink:href="#DejaVuSans-47" transform="translate(1297.359375 0)"/>
    <use xlink:href="#DejaVuSans-52" transform="translate(1360.84375 0)"/>
    <use xlink:href="#DejaVuSans-3" transform="translate(1422.03125 0)"/>
    <use xlink:href="#DejaVuSans-51" transform="translate(1453.8125 0)"/>
    <use xlink:href="#DejaVuSans-52" transform="translate(1517.1875 0)"/>
    <use xlink:href="#DejaVuSans-57" transform="translate(1578.375 0)"/>
    <use xlink:href="#DejaVuSans-3" transform="translate(1617.578125 0)"/>
    <use xlink:href="#DejaVuSans-46" transform="translate(1649.359375 0)"/>
    <use xlink:href="#DejaVuSans-52" transform="translate(1704.34375 0)"/>
    <use xlink:href="#DejaVuSans-51" transform="translate(1765.53125 0)"/>
    <use xlink:href="#DejaVuSans-49" transform="translate(1828.90625 0)"/>
    <use xlink:href="#DejaVuSans-58" transform="translate(1864.109375 0)"/>
    <use xlink:href="#DejaVuSans-56" transform="translate(1927.484375 0)"/>
    <use xlink:href="#DejaVuSans-48" transform="translate(1979.578125 0)"/>
    <use xlink:href="#DejaVuSans-3" transform="translate(2041.109375 0)"/>
    <use xlink:href="#DejaVuSans-57" transform="translate(2072.890625 0)"/>
    <use xlink:href="#DejaVuSans-4b" transform="translate(2112.09375 0)"/>
    <use xlink:href="#DejaVuSans-48" transform="translate(2175.46875 0)"/>
    <use xlink:href="#DejaVuSans-3" transform="translate(2237 0)"/>
    <use xlink:href="#DejaVuSans-45" transform="translate(2268.78125 0)"/>
    <use xlink:href="#DejaVuSans-58" transform="translate(2332.265625 0)"/>
    <use xlink:href="#DejaVuSans-56" transform="translate(2395.640625 0)"/>
    <use xlink:href="#DejaVuSans-3" transform="translate(2447.734375 0)"/>
    <use xlink:href="#DejaVuSans-13af" transform="translate(2479.515625 0)"/>
    <use xlink:href="#DejaVuSans-4f" transform="translate(2542.5 0)"/>
    <use xlink:href="#DejaVuSans-57" transform="translate(2570.28125 0)"/>
    <use xlink:href="#DejaVuSans-48" transform="translate(2609.484375 0)"/>
    <use xlink:href="#DejaVuSans-55" transform="translate(2671.015625 0)"/>
    <use xlink:href="#DejaVuSans-3" transform="translate(2712.125 0)"/>
    <use xlink:href="#DejaVuSans-5a" transform="translate(2743.90625 0)"/>
    <use xlink:href="#DejaVuSans-4c" transform="translate(2825.6875 0)"/>
    <use xlink:href="#DejaVuSans-57" transform="translate(2853.46875 0)"/>
    <use xlink:href="#DejaVuSans-4b" transform="translate(2892.671875 0)"/>
    <use xlink:href="#DejaVuSans-3" transform="translate(2956.046875 0)"/>
    <use xlink:href="#DejaVuSans-46" transform="translate(2987.828125 0)"/>
    <use xlink:href="#DejaVuSans-58" transform="translate(3042.8125 0)"/>
    <use xlink:href="#DejaVuSans-55" transform="translate(3106.1875 0)"/>
    <use xlink:href="#DejaVuSans-55" transform="translate(3145.546875 0)"/>
    <use xlink:href="#DejaVuSans-48" transform="translate(3184.453125 0)"/>
    <use xlink:href="#DejaVuSans-51" transform="translate(3245.984375 0)"/>
    <use xlink:href="#DejaVuSans-57" transform="translate(3309.359375 0)"/>
    <use xlink:href="#DejaVuSans-3" transform="translate(3348.5625 0)"/>
    <use xlink:href="#DejaVuSans-56" transform="translate(3380.34375 0)"/>
    <use xlink:href="#DejaVuSans-48" transform="translate(3432.4375 0)"/>
    <use xlink:href="#DejaVuSans-51" transform="translate(3493.96875 0)"/>
    <use xlink:href="#DejaVuSans-56" transform="translate(3557.34375 0)"/>
    <use xlink:href="#DejaVuSans-4c" transform="translate(3609.4375 0)"/>
    <use xlink:href="#DejaVuSans-51" transform="translate(3637.21875 0)"/>
    <use xlink:href="#DejaVuSans-4a" transform="translate(3700.59375 0)"/>
   </g>
  </g>
 </g>
 <defs>
  <clipPath id="pb55b580436">
   <rect x="52.416016" y="32.64" width="650.424615" height="238.307172"/>
  </clipPath>
  <clipPath id="pfcc9f8c7c9">
   <rect x="52.416016" y="286.327172" width="650.424615" height="238.307172"/>
  </clipPath>
 </defs>
</svg>
